<svg xmlns="http://www.w3.org/2000/svg" viewBox="0 0 54.44 54.44">
    <defs>

    </defs>

    <g id="Слой_2" data-name="Слой 2">
        <g id="down" data-name="Слой 1">
            <path class="cls-1"
                  d="M27.52,35l.07,0,.12,0,.09,0,.09,0,.11-.06a1.18,1.18,0,0,0,.28-.22L38.56,24.34a1.52,1.52,0,0,0,0-2.1,1.47,1.47,0,0,0-2.1,0L28.72,30l-1.51,1.46L25.74,30h0L18,22.23A1.48,1.48,0,0,0,17,21.8a1.47,1.47,0,0,0-1,.43,1.5,1.5,0,0,0,0,2.11L26.17,34.61a1.61,1.61,0,0,0,.38.27l.09,0,0,0h.07l.11,0,.08,0,.27,0A1.35,1.35,0,0,0,27.52,35Z"/>
            <path d="M27.22,54.44A27.22,27.22,0,1,1,54.44,27.22,27.25,27.25,0,0,1,27.22,54.44ZM27.22,3A24.22,24.22,0,1,0,51.44,27.22,24.25,24.25,0,0,0,27.22,3Z"/>
        </g>
    </g>
</svg>