<svg xmlns="http://www.w3.org/2000/svg" viewBox="0 0 29.01 16.63">
    <defs>

    </defs>
    <title>logoРесурс 2</title>
    <g id="Слой_2" data-name="Слой 2">
        <g id="Слой_1-2" data-name="Слой 1">
            <path
                  d="M.12,7.84l0,.06v0A.43.43,0,0,0,.06,8l0,.08a.14.14,0,0,0,0,.06,1.11,1.11,0,0,0,0,.19,1.38,1.38,0,0,0,0,.22.43.43,0,0,1,0,.05l0,.08s0,0,0,.06l0,.07,0,.07a.72.72,0,0,0,.16.2l7.26,7.27a1.08,1.08,0,0,0,1.49,0,1,1,0,0,0,.31-.74,1.06,1.06,0,0,0-.31-.75L3.59,9.37H28a1.05,1.05,0,1,0,0-2.1H3.58L9.06,1.79a1,1,0,0,0,0-1.48,1.06,1.06,0,0,0-1.49,0L.31,7.57A1.17,1.17,0,0,0,.12,7.84Z"/>
        </g>
    </g>
</svg>