<svg xmlns="http://www.w3.org/2000/svg" xmlns:xlink="http://www.w3.org/1999/xlink" viewBox="0 0 361.46 59.63"><defs><style>.cls-1{fill:#55408c;}.cls-2{fill:#9b014f;}.cls-3{fill:#0060a1;}.cls-4{fill:#f9c606;}.cls-5{fill:#d0172c;}.cls-6{fill:url(#Безымянный_градиент_19);}.cls-7{fill:#dc5e15;}.cls-8{fill:#75b238;}.cls-9{fill:#009388;}</style><linearGradient id="Безымянный_градиент_19" x1="89.08" y1="34.93" x2="361.46" y2="34.93" gradientUnits="userSpaceOnUse"><stop offset="0" stop-color="#dc5e15"/><stop offset="1" stop-color="#d0172c"/></linearGradient></defs><title>logoРесурс 1</title><g id="Слой_2" data-name="Слой 2"><g id="Слой_1-2" data-name="Слой 1"><path class="cls-1" d="M31,57.91C40.35,56.15,47.59,47,47.16,37c0-.49-.07-1-.13-1.44A24,24,0,0,1,31,57.91Z"/><path class="cls-1" d="M31.15,56.8l.13,0,.12,0,.12,0,.13,0,.12-.05.13,0,.12,0,.13-.05.12,0,.12,0,.13-.05.12,0,.13-.05.12-.06.12-.05.13-.06.12-.05.13-.06.12-.06.12-.06.13-.06.12-.06.13-.06.12-.07.13-.07.12-.06.12-.07.13-.07.12-.07.12-.07.13-.07.12-.07.13-.08.12-.07.12-.08.13-.08.12-.07.13-.08.12-.09.13-.08.12-.08.12-.09.13-.08.12-.09.13-.09.12-.09.12-.09.13-.09.12-.1.13-.09.12-.1.13-.1.12-.1.12-.1L38,53l.12-.11.12-.1.13-.11.12-.11.13-.11.12-.12.13-.11.12-.12.12-.11.13-.12.12-.12.13-.13.12-.12.12-.13.13-.13.12-.13a.8.8,0,0,1,.13-.13l.12-.14.12-.14.13-.14.12-.14.13-.15.12-.14L41,50l.12-.16.12-.15.13-.16.12-.16.13-.17L41.7,49l.12-.17.13-.18.12-.17.13-.18.12-.19.12-.18.13-.2.12-.19.13-.2.12-.21.12-.21a2.39,2.39,0,0,0,.13-.21l.12-.22.13-.23.12-.23.12-.24c0-.08.09-.17.13-.25l.12-.25.13-.27.12-.27.13-.28.12-.29.12-.3c.05-.11.09-.21.13-.32l.12-.33c0-.12.09-.23.13-.35l.12-.37.12-.39c0-.13.09-.27.13-.41l.12-.45c0-.16.09-.32.13-.48l.12-.55c0-.2.09-.41.12-.62s.09-.49.13-.73.09-.64.12-1c.07-.65.11-1.3.13-2a22.86,22.86,0,0,0-.13-2.5q0-.47-.12-.93c0-.24-.08-.48-.13-.72s-.08-.4-.12-.6l-.12-.52c0-.16-.09-.32-.13-.48l-.12-.43c0-.13-.08-.27-.13-.4L45.05,29l-.12-.35-.13-.33L44.68,28a2.88,2.88,0,0,0-.13-.31l-.12-.29-.12-.28,0-.08h0c0,.19,0,.38,0,.57s0,.5,0,.75,0,.28,0,.41c0,.64-.07,1.28-.13,1.91,0,.38-.08.75-.12,1.12s-.08.58-.13.87l-.12.75c0,.22-.08.44-.13.66l-.12.59-.12.54c0,.17-.08.34-.13.51l-.12.48c0,.15-.08.29-.13.44l-.12.42-.12.41c0,.13-.09.25-.13.38l-.12.37a3.62,3.62,0,0,1-.13.35l-.12.35-.12.32c0,.11-.09.22-.13.32l-.12.31c0,.1-.08.2-.13.3l-.12.29-.12.28c0,.09-.09.18-.13.27l-.12.27c0,.09-.09.17-.13.26l-.12.25-.12.25c-.05.08-.09.16-.13.24l-.12.24a1.71,1.71,0,0,0-.13.23l-.12.22a1.59,1.59,0,0,1-.13.22l-.12.22-.12.21a2.39,2.39,0,0,0-.13.21l-.12.2a1.37,1.37,0,0,1-.13.2l-.12.2-.12.19-.13.19-.12.18-.13.19-.12.17-.12.18-.13.17-.12.17-.13.17-.12.16a1.83,1.83,0,0,1-.13.16l-.12.16-.12.15c0,.06-.09.11-.13.16l-.12.15-.12.15-.13.14-.12.15-.13.14-.12.14-.13.13-.12.14-.12.13-.13.13-.12.13-.13.13-.12.12-.12.13-.13.12-.12.12-.13.12-.12.11-.13.12-.12.11-.12.11-.13.11-.12.11-.13.1-.12.11-.12.1-.13.1-.12.1-.12.1-.13.1-.12.09-.13.1-.12.09-.13.09-.12.09-.12.09-.13.09-.12.09L33,51.3l-.12.08-.12.09-.13.08-.12.08-.13.08-.12.08-.12.07-.13.08L31.9,52l-.13.08-.12.07-.13.07-.12.07-.12.07-.13.06L31,52.5l-.13.07-.12.06-.12.06-.13.07-.12.06-.13.06-.12.06L30,53l-.13,0-.12.06-.13,0-.12.06-.12.05-.13.06-.12.05-.13,0-.12,0-.13.05-.12,0-.12,0-.13.05-.12,0-.13,0-.12,0-.12,0-.13,0-.12,0-.13,0-.12,0-.12,0-.13,0-.12,0-.13,0-.12,0-.12,0-.13,0-.12,0-.13,0-.12,0-.12,0-.13,0-.12,0-.13,0-.12,0-.12,0-.13,0-.12,0h0l-.09,0-.12,0-.13,0-.12,0-.12,0-.13,0-.12,0-.13,0-.12,0-.12,0-.13,0-.12,0-.13,0-.12,0-.13,0-.12,0-.12,0L23,55l-.12,0-.12,0h-.13l-.12,0-.13,0h-.12l-.13,0-.12,0h-.12l-.13,0h-.25l-.12,0h-3.6l-.12,0H17.5l-.12,0h-.12l-.13,0-.12,0-.13,0-.12,0-.13,0-.12,0-.12,0-.13,0-.12,0-.13,0-.12,0-.12,0-.13,0-.12,0-.13,0-.12,0-.12,0-.13,0-.12,0-.13,0-.12,0-.12-.05-.13,0,.13.08.12.08.12.08.13.07.12.08.13.07.12.08.12.07.13.07.12.07.13.07.12.07.12.06.13.07.12.07.13.06.12.07.12.06.13.06.12.06.13.06.12.06.13,0,.12.06.12.06.13,0,.12,0,.13.06.12.05.12,0,.13,0,.12,0,.13.05.12,0,.12,0,.13.05.12,0,.13,0,.12,0,.13,0,.12,0,.12,0,.13,0,.12,0L20,57l.13,0,.12,0,.13,0,.12,0,.13,0,.12,0,.12,0,.13,0,.12,0,.13,0,.12,0,.12,0,.13,0,.12,0,.13,0,.12,0,.12,0,.13,0,.12,0,.13,0h.12l.13,0h.12l.12,0h.13l.12,0h3.72l.13,0h.37l.12,0h.13l.12,0,.13,0,.12,0h.12l.13,0,.12,0,.13,0,.12,0,.12,0,.13,0,.12,0,.13,0,.12,0,.13,0,.12,0,.12,0,.13,0,.12,0,.13,0,.12,0,.12,0,.13,0,.12,0,.13,0,.12,0,.12,0,.13,0Z"/><path class="cls-1" d="M51.6,1.4A24,24,0,0,1,67.66,23.75c.06-.47.11-.95.13-1.44C68.22,12.34,61,3.16,51.6,1.4Z"/><path class="cls-1" d="M66.91,20.7c0-.24-.08-.49-.13-.73l-.12-.62-.12-.54c0-.17-.09-.33-.13-.49l-.12-.45c0-.14-.08-.28-.13-.41L66,17.07c0-.13-.08-.25-.13-.37l-.12-.35L65.67,16c0-.1-.09-.21-.13-.32l-.12-.3c0-.09-.08-.19-.13-.29l-.12-.28-.12-.27c0-.09-.09-.18-.13-.27L64.8,14l-.13-.25-.12-.23-.12-.24a2.53,2.53,0,0,1-.13-.22l-.12-.23-.13-.21-.12-.21-.12-.21a1.37,1.37,0,0,1-.13-.2l-.12-.19c0-.07-.09-.13-.13-.19l-.12-.19-.12-.19-.13-.18-.12-.17-.13-.18-.12-.17a1.83,1.83,0,0,0-.13-.16l-.12-.17-.12-.16a1,1,0,0,1-.13-.16l-.12-.15-.13-.15-.12-.16-.12-.14-.13-.15L61.45,9l-.13-.14-.12-.14-.12-.13L61,8.49l-.12-.13-.13-.13-.12-.12L60.46,8l-.13-.12-.12-.12-.13-.12L60,7.5l-.13-.12-.12-.11-.12-.12L59.46,7l-.12-.11-.13-.1-.12-.11L59,6.61l-.13-.1-.12-.1-.13-.1-.12-.1-.12-.09L58.22,6l-.12-.1L58,5.83l-.12-.09-.12-.09-.13-.09-.12-.09-.13-.08-.12-.09-.13-.08L57,5.14l-.12-.08L56.73,5l-.12-.07-.13-.08-.12-.08-.12-.07-.13-.08L56,4.52l-.13-.07-.12-.07-.12-.07-.13-.07-.12-.07-.13-.06L55.12,4,55,4l-.13-.07-.12-.06-.13-.06-.12-.06-.12-.06-.13,0-.12-.06L54,3.5l-.12,0-.12-.06-.13-.05-.12,0-.13,0-.12-.05-.13,0L53,3.09l-.12,0-.13,0-.12,0-.13,0-.12,0-.12,0-.13-.05-.12,0-.13,0-.12,0-.12,0-.13,0-.12,0-.13,0-.12,0-.12,0-.13,0-.12,0-.13,0-.12,0-.13,0-.12,0-.12,0-.13,0-.12,0-.13,0-.12,0-.12,0-.13,0-.12,0-.13,0-.12,0-.12,0-.13,0-.12,0h-.25l-.13,0H47.8l-.13,0H44.32L44.2,2H44l-.12,0H43.7l-.12,0-.12,0h-.13l-.12,0-.13,0-.12,0-.12,0-.13,0-.12,0-.13,0-.12,0-.12,0-.13,0-.12,0-.13,0-.12,0-.13,0-.12,0-.12,0-.13,0-.12,0-.13,0-.12,0-.12,0-.13,0-.12,0-.13,0-.12,0-.12,0-.13,0-.12,0-.13,0-.12,0-.12,0-.13.05-.12,0-.13,0L39,3.24l-.12.06-.13.05-.12,0-.13.06-.12,0-.13.06-.12.06L38,3.68l-.13.06-.12.06-.13.06-.12.07L37.38,4l-.13.07-.12.06L37,4.19l-.12.06-.13.07-.12.07-.12.07-.13.07-.12.08-.12.07L36,4.75l-.12.08-.13.08L35.64,5l-.12.08-.13.08.13,0,.12,0,.12,0,.13,0,.12,0,.13,0,.12,0,.12,0,.13,0,.12,0,.12,0,.13,0,.12,0,.13,0,.12,0,.13,0,.12,0,.12,0,.13,0,.12,0,.13,0,.12,0h.12l.13,0,.12,0h.13l.12,0h3.6l.12,0h.25l.13,0H43l.12,0,.13,0h.12l.13,0,.12,0,.12,0,.13,0H44l.13,0,.12,0,.12,0,.13,0,.12,0,.13,0,.12,0,.12,0,.13,0,.12,0,.13,0,.12,0,.13,0,.12,0,.12,0,.13,0,.12,0,.09,0h0l.12,0,.12,0,.13,0,.12,0,.13,0,.12,0,.12,0,.13,0,.12,0,.13,0,.12,0,.12,0,.13,0,.12,0,.13,0,.12,0,.12,0,.13,0,.12,0,.13,0,.12,0,.13,0,.12,0,.12,0,.13,0,.12,0,.13,0,.12,0,.12,0,.13,0,.12.05.13.06.12,0,.12,0,.13.05.12.06.13,0,.12.06.13.06.12,0,.12.06.13.06.12.06.13.07.12.06.12.06.13.07.12.07.13.06.12.07.12.07.13.07.12.07.13.08.12.07.12.08.13.07.12.08.13.08.12.08.13.08.12.09.12.08.13.08.12.09.13.09.12.09.12.09.13.09.12.09L55,9l.12.09.12.1.13.1.12.1.13.1.12.1.12.11.13.1.12.11.13.11.12.11.12.12a.69.69,0,0,1,.13.11l.12.12a.69.69,0,0,0,.13.11l.12.12.12.13.13.12.12.12.13.13.12.13.13.13.12.13.12.14.13.13.12.14.13.15.12.14.12.15.13.14.12.15a1.83,1.83,0,0,0,.13.16l.12.15.12.16a1.83,1.83,0,0,1,.13.16l.12.16.13.17.12.17.12.17.13.18.12.18.13.18.12.18a1.27,1.27,0,0,0,.13.19l.12.19.12.2.13.2.12.2a2.39,2.39,0,0,0,.13.21l.12.21.12.22a1.59,1.59,0,0,1,.13.22l.12.22.13.23.12.24.12.24c.05.08.09.17.13.25l.12.25c0,.09.09.18.13.26l.12.27.12.27.13.28.12.29.13.3.12.31c0,.11.08.21.13.32l.12.33.12.34c0,.12.09.23.13.35l.12.37c0,.13.08.26.13.39l.12.4.12.42c0,.15.09.3.13.45l.12.47c0,.17.08.34.13.51l.12.54.12.6c0,.21.09.43.13.65l.12.75c0,.29.09.58.13.87s.09.75.12,1.12c.06.63.1,1.27.12,1.91,0,.14,0,.27,0,.41s0,.5,0,.75l0,.58,0-.09a2.39,2.39,0,0,0,.13-.28l.12-.29.13-.3.12-.32.12-.34c0-.12.09-.23.13-.35l.12-.38c0-.13.09-.27.13-.4l.12-.43c0-.16.09-.32.13-.48l.12-.52.12-.6c0-.24.09-.48.13-.72s.09-.62.12-.93a20.63,20.63,0,0,0,.12-2.5c0-.65-.05-1.3-.12-1.94C67,21.34,67,21,66.91,20.7Z"/><path class="cls-2" d="M39.78,41.23l-.14.16-.15.16-.14.16-.14.15-.15.15-.14.14-.15.15-.14.14-.15.14-.14.13-.15.14-.14.13-.15.13-.14.12-.15.13-.14.12-.15.12-.14.12-.15.11-.14.12-.15.11-.14.11-.15.11-.14.1-.15.11-.14.1-.14.1-.15.1-.14.1-.15.1-.14.1-.15.09-.14.09-.15.09-.14.09-.15.09-.14.09-.15.08-.14.08-.15.09-.14.08L33.7,46l-.14.07h0l-.14.07-.14.08-.15.08-.14.07-.15.08-.14.07-.15.07-.14.07-.14.07-.15.06L32,46.9h0l-.15.07-.14.07-.15.06-.14.06-.15.06-.14.06-.15.06-.14.06-.15.05-.14.06-.15,0-.14,0-.15.05-.14,0-.15.05-.14,0-.15,0-.14,0-.15.05-.14,0-.15,0-.14,0-.15,0-.14,0-.14,0-.15,0-.14,0-.15,0-.14,0-.15,0-.14,0-.15,0-.14,0-.15,0-.14,0-.15,0-.14,0-.15,0-.14,0-.15,0-.14,0-.15,0-.14,0-.15,0-.14,0-.15,0-.14,0-.15,0h-.14l-.15,0-.14,0h-.29l-.14,0h-.44l-.14,0H19.66l-.15,0h-.29l-.14,0h-.15l-.14,0h-.15l-.14,0-.15,0-.14,0-.15,0-.14,0-.15,0-.14,0-.14,0-.15,0-.15,0-.14,0-.14,0-.15,0-.14,0-.15,0-.14,0-.15,0-.14,0-.15,0-.14,0-.15,0-.14,0-.15,0-.14,0-.15,0-.14,0-.15,0-.14,0-.15,0-.14,0-.15,0L14,47.87l-.15,0-.14,0-.14,0-.15-.05-.14,0-.15,0L13,47.55l-.15,0-.14-.06-.15,0-.14,0-.15-.06-.14-.05L12,47.17l-.14-.05-.15-.06L11.55,47l-.15-.06-.14-.06-.15-.06L11,46.76l-.15-.07-.14-.06-.15-.07-.14-.06-.15-.07-.14-.07L10,46.29l-.15-.07-.14-.07-.15-.07L9.38,46l-.15-.08-.14-.07-.15-.08-.14-.07-.15-.08-.14-.08-.15-.08-.14-.08-.15-.08-.14-.09-.15-.08-.14-.08L7.49,45l-.14-.09-.15-.09-.14-.08-.15-.09-.14-.1-.15-.09-.14-.09-.14-.09-.15-.1-.14-.1L5.9,44l-.14-.09-.15-.1-.14-.11-.15-.1-.14-.1L5,43.35l-.14-.11-.15-.11L4.6,43l-.15-.11-.14-.11-.15-.11L4,42.58l-.15-.11-.14-.11-.15-.12-.14-.11L3.29,42l-.14-.12L3,41.77l-.15-.12L3,42c0,.1.09.2.14.3s.1.2.14.3l.15.29.14.27.15.28c0,.08.09.17.14.26l.15.26.14.25.15.25.14.24.15.24c.05.07.09.15.14.23l.15.22.14.22.15.22.14.21.15.21a1.43,1.43,0,0,0,.14.2l.15.2a2.43,2.43,0,0,0,.14.2l.15.19.14.19.15.19.14.18.14.17.15.18.14.17.15.17.14.17.15.16.14.16.15.16.14.15.15.15.14.15.15.15.14.14.15.14.14.14.15.14.14.14.12.1,0,0,.14.12.15.13.14.13.15.12.14.13.15.12.14.12.14.13.15.12.14.12.15.12.14.12.15.12.14.12h0l.13.06.14.07.15.07h0l.14.07.15.07.14.07.15.06.14.07.15.06.14.06.15.06.14.06.15.06.14.05.15,0,.14.06.15,0,.14,0,.14.05.15,0,.14,0,.15.05.14,0,.15,0,.14,0,.15,0,.14,0,.15,0,.14,0,.15,0,.14,0,.15,0,.14,0,.15,0,.14,0,.15,0,.14,0,.15,0,.14,0,.15,0,.14,0,.14,0,.15,0h.15l.14,0h3.62l.14,0h.15l.14,0h.15l.14,0,.15,0,.14,0,.15,0,.14,0,.15,0,.14,0,.15,0,.14,0,.15,0,.14,0,.15,0,.14,0,.15,0,.14,0,.15,0,.14,0,.15,0,.14,0,.14,0,.15,0,.14,0,.15,0,.14,0,.15,0,.14-.05.15,0,.14,0L26,53l.14-.05.15,0,.14,0,.15-.05.14,0,.15-.05.14,0,.15-.06.14,0,.15-.06.14-.06.15,0,.14-.06.15-.06.14-.07.15-.06.14-.06.14-.07.15-.06.14-.07.15-.07.14-.06.15-.07.14-.08.15-.07.14-.07.15-.07.14-.08.15-.08.14-.08.15-.07.14-.08.15-.08L31,50.8l.15-.08.14-.08.15-.09.14-.08.15-.09.14-.09L32,50.2l.06,0,.08-.06.15-.1.14-.1.14-.11.15-.1.14-.11.15-.11.14-.11.15-.11.14-.11.15-.12.14-.11.15-.12.14-.12.15-.13.14-.12.15-.13.14-.12.15-.14.14-.13.15-.13.14-.14.15-.14.14-.14.15-.14.14-.15.15-.15.14-.15.14-.15.15-.16.14-.16.15-.16a2.09,2.09,0,0,0,.14-.17l.15-.17a1.15,1.15,0,0,0,.14-.17l.15-.18.14-.18.15-.18.14-.19.15-.19.14-.2.15-.2.14-.21.15-.21.14-.22.15-.22.14-.23.15-.24c0-.08.09-.16.14-.24l.15-.26.14-.26c0-.09.1-.18.14-.27l.15-.28a2.59,2.59,0,0,0,.14-.29l.15-.3h0Z"/><path class="cls-2" d="M60.77,18.21c0-.1-.09-.19-.14-.29l-.15-.28c0-.09-.09-.18-.14-.27l-.15-.26a2,2,0,0,0-.14-.25l-.15-.25c0-.08-.09-.16-.14-.24a1.76,1.76,0,0,1-.14-.23l-.15-.22-.14-.22-.15-.21c0-.07-.1-.14-.14-.21l-.15-.2c0-.06-.09-.13-.14-.2l-.15-.19-.14-.19-.15-.18-.14-.18L58,14l-.14-.17-.15-.17-.14-.17-.15-.16-.14-.16L57.15,13,57,12.82l-.15-.15-.14-.15-.15-.15-.14-.14-.15-.14L56.14,12,56,11.81l-.15-.13-.14-.13-.15-.13-.14-.13-.15-.13L55.13,11,55,10.92l-.14-.12-.15-.12-.14-.12-.15-.12-.14-.11-.15-.11L54,10.11,53.82,10l-.14-.11-.15-.1-.14-.11-.15-.1-.14-.1L53,9.42l-.06,0-.14-.1-.15-.08-.14-.09L52.37,9,52.23,9l-.14-.09-.15-.08L51.8,8.7l-.15-.09-.14-.08-.15-.07-.14-.08-.15-.08-.14-.07-.15-.08-.14-.07L50.49,8l-.14-.07-.15-.07-.14-.07-.15-.07-.14-.07-.15-.06-.14-.07-.15-.06-.14-.06L49,7.35l-.14-.06-.15-.06-.14-.06-.14-.06-.15-.05L48.18,7,48,7l-.14-.06-.15,0-.14,0-.15,0-.14,0-.15-.05L47,6.6l-.15,0-.14,0-.15,0-.14,0-.15,0-.14,0-.15,0-.14,0-.15,0-.14,0-.15,0-.14,0-.14,0L45,6l-.15,0L44.7,6l-.14,0-.15,0-.14,0-.15,0-.14,0-.15,0-.14,0-.15,0-.14,0-.15,0-.14,0-.15,0h-.14l-.15,0-.14,0h-.15l-.14,0H38.62l-.15,0-.14,0h-.15l-.14,0-.15,0-.14,0-.14,0-.15,0-.14,0-.15,0-.14,0-.15,0-.14,0-.15,0-.14,0L36.3,6l-.14,0-.15,0-.14,0-.15,0-.14,0-.15,0-.14,0-.15,0-.14,0-.15,0-.14,0-.15.05-.14,0-.14,0-.15,0L34,6.69l-.14,0-.14.06-.15.06-.14.06L33.26,7l-.14.07L33,7.11l-.14.07-.15.07-.14.07h0l-.15.07-.14.07-.13.06,0,0L32,7.65l-.15.12-.14.12L31.52,8l-.14.12-.15.12-.14.13-.15.12-.14.13-.15.12-.14.13L30.37,9l-.15.13-.14.13,0,0-.11.11-.15.13-.14.14-.14.14-.15.14-.14.14-.15.15-.14.15-.15.15a1.07,1.07,0,0,0-.14.16l-.15.15-.14.16-.15.17-.14.16-.15.17a1.15,1.15,0,0,1-.14.17l-.15.18-.14.18-.15.18-.14.18-.15.19a1.33,1.33,0,0,1-.14.19l-.15.2a2.43,2.43,0,0,1-.14.2l-.15.2c0,.07-.09.14-.14.21l-.14.21L26,14l-.14.22-.15.23a1.76,1.76,0,0,0-.14.23l-.15.23c-.05.08-.1.16-.14.24l-.15.25-.14.25-.15.26-.14.27-.15.27c-.05.09-.09.18-.14.28l-.15.28-.14.3-.15.3a2.92,2.92,0,0,1-.14.31l.14-.12.15-.12.14-.12.15-.11.14-.12.15-.12.14-.11L25,17l.14-.12.15-.11.14-.11.15-.1.14-.11.15-.11.14-.11.15-.1.14-.1.14-.1.15-.11.14-.09.15-.1.14-.1.15-.1.14-.09.15-.1.14-.09.15-.09L27.9,15l.15-.1.14-.08.15-.09.14-.09.15-.09.14-.08.15-.08.14-.09.15-.08.14-.08L29.5,14l.14-.08.14-.07.15-.08.15-.08.14-.07.15-.08.14-.07.14-.07.15-.07.14-.07.15-.07.14-.07.15-.07.14-.06.15-.07.14-.06.15-.07.14-.06.15-.06.14-.06.15-.06.14-.06.15-.06.14-.05.15-.06.14,0,.15-.06.14-.05.15,0,.14-.05L34,12l.15,0,.15-.05.14,0,.14-.05.15-.05.14,0,.15,0,.14-.05.15,0,.14,0,.15,0,.14,0,.15,0,.14,0,.15,0,.14,0,.15,0,.14,0,.15,0,.14,0,.15,0,.14,0,.15,0,.14,0,.15,0,.14,0,.14,0L38,11l.14,0,.15,0,.14,0,.15,0,.14,0,.15,0,.14,0,.15,0,.14,0,.15,0h.14l.15,0,.14,0h.15l.14,0h.44l.14,0h4.35l.14,0h.14l.15,0h.14l.15,0,.14,0,.15,0h.14l.15,0,.14,0,.15,0,.14,0,.15,0,.14,0,.15,0,.14,0,.15,0,.14,0,.15,0,.14,0,.15,0,.14,0,.15,0,.14,0,.14,0,.15,0,.14,0,.15,0,.14,0,.15,0,.14,0,.15,0,.14,0,.15,0,.14,0,.15,0,.14,0,.15,0,.14.05.15,0,.14.05.15.05.14,0,.15.06.14,0,.15.06.14.05.15.06.14.06.14.06.15.06.14.07.15.06.14.07,0,0,.12.05.14.07.15.06.14.07.15.07.14.08.15.07.14.07.15.08.14.08.13.07h0l.14.08.15.08.14.08.15.08.14.08.15.09.14.08.15.09.14.09.15.09.14.09.14.1.15.09.14.1.15.1.14.1L57,15l.14.1.15.11.14.1.15.11.14.11.15.12.14.11.15.12.14.11.15.12.14.13.15.12.14.13.15.13.14.13.15.13.14.14.15.13.14.15.14.14.15.14.14.15.15.16.14.15.15.16.14.16.15.16Z"/><path class="cls-3" d="M41.74,54.73l.08-.08.07-.09.08-.08L42,54.4l.08-.08.07-.09.07-.09.08-.08.07-.09.08-.09.07-.09.08-.09.07-.09.08-.1.07-.09.08-.09.07-.1.08-.1.07-.1.08-.1.07-.1.08-.1.07-.1.08-.11.07-.11.08-.11.07-.1.07-.11.08-.12.07-.11.08-.12.07-.12.08-.12.07-.12.08-.12.07-.13.08-.13.07-.12.08-.14.07-.13.08-.14.07-.14.08-.14.07-.14.08-.15.07-.15.08-.16.07-.15.07-.16.08-.17s.05-.11.07-.17.05-.11.08-.17l.07-.18.08-.18.07-.18.08-.2.07-.19.08-.21.07-.21.08-.21c0-.08.05-.16.07-.23l.08-.24c0-.08,0-.16.07-.24s0-.17.08-.25,0-.18.07-.27,0-.19.08-.28,0-.2.07-.3,0-.21.07-.32.06-.22.08-.33.05-.24.07-.37.06-.26.08-.4.05-.29.07-.44.06-.33.08-.5,0-.39.07-.59.06-.49.08-.74c0,.11-.05.22-.08.33s-.05.22-.07.33-.05.2-.08.3,0,.19-.07.29a2.76,2.76,0,0,1-.08.27c0,.09,0,.18-.07.27a2.58,2.58,0,0,1-.08.26,2.17,2.17,0,0,1-.07.24c0,.08,0,.16-.07.24l-.08.23-.07.22-.08.21-.07.21-.08.21-.07.19-.08.19c0,.07,0,.13-.07.19l-.08.18-.07.18-.08.18s-.05.11-.07.17l-.08.16c0,.06-.05.11-.07.16l-.08.16c0,.06,0,.11-.07.16l-.08.15a1.11,1.11,0,0,1-.07.16l-.07.14-.08.15-.07.14-.08.14s-.05.09-.07.14l-.08.13s-.05.09-.07.14l-.08.12-.07.13-.08.13-.07.12-.08.13-.07.12-.08.12-.07.11-.08.12-.07.11-.08.12-.07.11-.08.1-.07.11-.07.11-.08.1-.07.11-.08.1-.07.1-.08.1-.07.1-.08.1-.07.09-.08.1-.07.09-.08.1-.07.09-.08.09-.07.09-.08.08-.07.09-.08.09-.07.09-.08.08-.07.08-.07.09-.08.08-.07.08-.08.08-.07.08-.08.08-.07.08-.08.07-.07.08-.08.08-.07.07-.08.07-.07.08-.08.07-.07.07-.08.07-.07.07-.08.07-.07.07-.07.07-.08.07-.08.06-.07.07-.07.07-.08.06-.07.07-.08.06-.07.06-.08.07-.07.06-.08.06-.07.06-.08.06-.07.06-.08.06-.07.06-.08.06-.07.06-.07.05-.08.06-.07.05-.08.06-.07.06-.08.05-.07.06-.08.05-.07,0-.08.06-.07,0-.08.05-.07,0-.08,0-.07.05-.08,0-.07.05-.08,0-.07,0-.07.05-.08,0-.08,0-.07.05-.07,0-.08,0-.07.05-.08,0-.07,0-.08.05-.07,0-.08,0-.07,0-.08,0-.07,0-.08.05-.07,0-.08,0-.07,0-.08,0-.07,0-.08,0-.07,0-.07,0-.08,0-.07,0-.08,0-.07,0-.08,0-.07,0-.08,0-.07,0-.08,0-.07,0-.08,0-.07,0-.08,0-.07,0-.08,0-.07,0-.08,0-.07,0-.08,0-.07,0-.07,0-.08,0-.07,0-.08,0-.07,0-.08,0-.07,0-.08,0-.07,0-.08,0-.07,0-.08,0-.07,0-.08,0-.07,0-.08,0-.07,0-.08,0-.07,0-.07,0-.08,0-.07,0-.08,0-.07,0-.08,0-.07,0-.08,0-.07,0-.08,0-.07,0-.08,0-.07,0-.08,0-.07,0-.08,0-.07,0-.08,0-.07,0-.07,0-.08,0-.07,0-.08,0-.07,0-.08,0-.07,0-.08,0-.07,0-.08,0-.07,0-.08,0h-.07l-.08,0-.07,0-.08,0h-.07l-.08,0-.07,0H30.3l-.07,0h-.08l-.07,0H30l-.08,0h-.15l-.07,0h-.38l-.07,0h4.63L34,59h.37l.08,0h.15l.07,0h.22l.08,0H35l.08,0h.07l.08,0h.07l.08,0h.07l.08,0h.07l.08,0h.07l.08,0h.07l.08,0,.07,0,.08,0h.07l.07,0,.08,0h.07l.08,0,.07,0,.08,0,.07,0,.08,0,.07,0H37l.07,0,.08,0,.07,0,.08,0,.07,0,.08,0,.07,0,.06,0h0l.07,0,.07-.05.08,0,.08,0,.07-.05.07,0,.08-.05.07,0,.08-.06.07,0,.08-.05.07,0,.08-.06.07,0,.08-.06.07,0,.08-.06.07,0,.08-.06.07-.06.08,0,.07-.06.08-.06.07-.06.07-.06.08-.06.07-.06.08-.06.07-.06.08-.06.07-.07.08-.06.07-.06.08-.07.07-.06.08-.07.07-.07.08-.06.07-.07.07-.07.08-.07.08-.07.07-.07.07-.07.08-.07.07-.07.08-.07.07-.08.08-.07.07-.08.08-.07.07-.08.08-.08.07-.08.08-.07Z"/><path class="cls-3" d="M54,38.16c0-.15,0-.3-.05-.45s0-.26,0-.39,0-.22,0-.34,0-.2-.05-.3,0-.2,0-.29a2.38,2.38,0,0,1-.05-.26l-.06-.25a1.55,1.55,0,0,0-.05-.23,1.89,1.89,0,0,0,0-.23,1.6,1.6,0,0,0,0-.21L53.4,35c0-.06,0-.13,0-.19l-.05-.19c0-.07,0-.13,0-.19s0-.12,0-.18l-.05-.17,0-.17-.05-.17L53,33.58l0-.15-.06-.16,0-.15L52.79,33l0-.15a1.21,1.21,0,0,0-.05-.14l0-.14,0-.13-.05-.14,0-.13L52.44,32l0-.12,0-.13-.06-.12-.05-.12,0-.12,0-.12-.05-.12,0-.11L52,30.94l0-.11,0-.11-.05-.11,0-.11-.05-.11,0-.1-.06-.11,0-.1,0-.1-.05-.1,0-.1-.05-.1,0-.1,0-.1-.05-.09,0-.1-.05-.09,0-.1L51,29,51,28.92l-.05-.09,0-.09,0-.09-.05-.09,0-.09-.05-.09,0-.08,0-.09-.05-.09,0-.08L50.41,28l0-.09,0-.08-.06-.08,0-.08,0-.07h0l0-.08-.05-.07,0-.07,0-.07-.05-.07,0-.08L49.8,27l0-.07,0-.07-.05-.06,0-.07-.06-.07,0-.07-.05-.07,0-.06,0-.07-.05-.06,0-.07-.05-.06,0-.07,0-.06L49,26,49,26l-.06-.06,0-.07-.05-.06,0-.06-.05-.06,0-.06,0-.06-.05-.06,0-.06-.05-.06,0-.06,0-.06-.05-.06-.06-.06-.05-.05,0-.06L48.12,25l0-.05,0-.06L48,24.79l0-.05-.05-.06,0-.05,0-.06-.05-.05,0-.05-.05-.06-.06-.05-.05-.05,0,0-.05-.06,0-.05,0,0-.05-.05,0-.05L47.16,24l0-.05,0,0L47,23.8l0-.05-.06-.05,0-.05-.05,0,0-.05a22.47,22.47,0,0,0-2-1.62,14.67,14.67,0,0,0-3.29-1.81,20.36,20.36,0,0,1,5.34,7.16l0,.11.05.11,0,.09h0v0s0,.06.06.1l0,.11.05.11,0,.12,0,.12.05.12,0,.12.05.12,0,.13,0,.13.05.14,0,.13.05.14.06.15.05.14,0,.15.05.16,0,.15,0,.17.05.16,0,.17c0,.06,0,.12.05.17l0,.19a1.21,1.21,0,0,1,0,.18,1.33,1.33,0,0,1,.05.19,1.46,1.46,0,0,1,0,.2l.05.2.06.21a1.74,1.74,0,0,0,.05.22,1.89,1.89,0,0,0,0,.23l0,.24c0,.08,0,.17.05.25s0,.18,0,.27,0,.18.05.27a2.87,2.87,0,0,1,0,.31,3.06,3.06,0,0,1,0,.32c0,.12,0,.24.05.35s0,.26,0,.39,0,.3.05.45,0,.36,0,.55l.06.73a29,29,0,0,1,0,3l-.06.72c0,.18,0,.36,0,.54s0,.3-.05.46,0,.26,0,.39,0,.23-.05.35,0,.22,0,.33a2.93,2.93,0,0,1,0,.29c0,.1,0,.19-.05.29s0,.17,0,.26,0,.17-.05.25,0,.16,0,.24a1.89,1.89,0,0,0,0,.23,1.74,1.74,0,0,0-.05.22l-.06.21a1.6,1.6,0,0,1-.05.21,1.94,1.94,0,0,1,0,.2,1.33,1.33,0,0,1-.05.19,1.8,1.8,0,0,1,0,.19,1.21,1.21,0,0,1,0,.18c0,.06,0,.12-.05.18l0,.17-.05.17s0,.11,0,.17a.75.75,0,0,0,0,.16.88.88,0,0,0-.05.15l0,.16a.88.88,0,0,0-.05.15l-.06.15a.88.88,0,0,1-.05.15l0,.14-.05.14a.58.58,0,0,1,0,.14l0,.14s0,.09-.05.13l0,.14-.05.13s0,.08,0,.13l0,.13A.61.61,0,0,0,47,48l0,.12-.06.12,0,.13a.61.61,0,0,1-.05.12.54.54,0,0,1,0,.11l0,.12-.05.11,0,.11-.05.12,0,.11,0,.11-.05.11,0,.1-.05.11,0,.11-.06.1a.31.31,0,0,1,0,.1l0,.1-.05.11,0,.1-.05.1,0,.1,0,.1-.05.09,0,.09-.05.1,0,.09,0,.1-.06.09-.05.1a.41.41,0,0,1,0,.09l0,.09-.05.08,0,.09-.05.09,0,.09,0,.09-.05.09L45,52l-.05.09,0,.08-.06.08,0,.09,0,.08-.05.09,0,.08-.05.08,0,.08,0,.08-.05.08,0,.08-.05.08,0,.08,0,.08-.05.07-.06.08,0,.07,0,.08L44,53.6l0,.07-.05.08,0,.07,0,.08-.05.07,0,.07-.05.07,0,.07,0,.08-.06.07,0,.07-.05.07,0,.07-.05.07,0,.07,0,.07-.05.07,0,.07-.05.06L43,55l0,.07-.05.07-.06.07-.05.06,0,.07-.05.07,0,.06,0,.06-.05.07,0,.06-.05.07,0,.06,0,.07-.05.06,0,.07-.05.06-.06.06-.05.06,0,.07-.05.06,0,.06,0,.06-.05.06,0,.06-.05.06,0,.07,0,0h0l0,0,.05,0,0,0,.05,0,0,0,0,0,.05,0,0,0,.05,0,.06,0,.05,0,0,0,.05,0,0,0,0,0,.05,0,0,0,.05,0,0,0,0,0,.05,0,0,0,.05,0,.06,0,.05,0,0,0,0,0,.05,0,0,0,.05,0,0,0,0,0,.05,0,0,0,.05,0,0,0,.06,0,0,0,0,0,.05,0,0,0,.05,0,0,0,0,0,.05,0,0,0,.05,0,0,0,0,0,.06,0,.05,0,0,0,0,0,.05,0,0,0,.05,0,0,0,0,0,.05,0,0,0,.05,0,0,0,0,0,.06,0,0,0,.05,0,0,0,.05,0,0,0,0,0,.05,0,0,0,.05,0,0,0,0,0,.05,0,.06,0,0,0,0,0,.05,0,0,0,.05,0,0,0,0,0,.05,0,0,0,.05,0,0,0,0,0,.06,0,0,0,.05,0,0,0,.05,0,0,0,0,0,.05,0,0,0,.05,0,0,0,0,0,.05,0,0,0,.06,0,0,0,.05,0,0,0,0,0,.05,0,0,0,.05,0,0,0,0,0,.05,0,0,0,.05,0,.06,0,.05,0,0,0,.05,0,0,0,0,0,.05,0,0,0,.05,0,0,0,0,0,.05,0,0-.05.05,0,.06,0,.05-.05,0,0,0,0,.05,0,0-.05.05,0,0,0,0,0,.05,0,0,0,.05,0,0,0,.06,0,0,0,.05-.05,0,0,0,0,.05-.05,0,0,.05,0,0-.05,0,0,.05-.05,0,0,.06,0,0-.05.05-.06,0,0,0,0,.05-.05,0-.06L50,50.9l0,0,0-.06.05,0,0-.06.05,0,0-.06,0,0h0l0-.06,0-.06.05,0,0-.06.05-.06,0-.06,0-.06.05,0,0-.06.05-.06,0-.06,0-.06.05-.06L51,49.7l0-.06,0-.06.05-.06,0-.06.05-.06,0-.06,0-.06.05-.06,0-.06.05-.06,0-.06,0-.06.06-.06,0-.06.05-.06,0-.07.05-.06,0-.06,0-.06.05-.06,0,0,0-.05.05-.1,0-.1,0-.11,0-.06,0-.05.06-.1,0-.11,0-.11.05-.11,0-.11.05-.11,0-.12,0-.12.05-.12,0-.13.05-.12,0-.14.06-.13,0-.14.06-.14A1.21,1.21,0,0,1,53.1,46a.88.88,0,0,1,0-.15c0-.05,0-.1.05-.16s0-.1,0-.15l0-.17.05-.17c0-.06,0-.12,0-.18l.05-.18a30827137529809,30827137529809,0,0,0,.1-.4,1.6,1.6,0,0,0,.05-.21l.06-.24a2,2,0,0,1,.05-.24,2,2,0,0,1,0-.26,2.93,2.93,0,0,1,.05-.29c0-.11,0-.21,0-.32s0-.24,0-.37,0-.29.05-.43,0-.38,0-.58a18.43,18.43,0,0,0,0-2.78C54,38.56,54,38.36,54,38.16Z"/><path class="cls-3" d="M62.15,6.43l.07.08.07.07.08.08.07.08.08.08.07.08.08.08.07.08.08.09.07.08.08.09L63,7.4l.08.09.07.09.08.08.07.09.08.09.07.1.08.09.07.09.08.1.07.09.07.1.08.1.07.1.08.1.07.1.08.11a.86.86,0,0,1,.07.1l.08.11.07.11.08.11.07.11a1,1,0,0,1,.08.11l.07.11.08.12.07.11L65,10l.07.13.08.12.07.12a.83.83,0,0,1,.07.13l.08.13s0,.08.07.13l.08.13c0,.05,0,.09.07.14l.08.13.07.14.08.15.07.14.08.15.07.15.08.15s0,.1.07.16l.08.16.07.16.08.17s0,.11.07.17,0,.11.08.17l.07.18.08.18a1.46,1.46,0,0,0,.07.19l.07.19c0,.06.05.13.08.19s0,.14.07.21l.08.21c0,.07,0,.14.07.21l.08.23c0,.07,0,.14.07.22s0,.16.08.24.05.16.07.25,0,.16.08.25,0,.18.07.27.05.18.08.27,0,.2.07.3l.08.29c0,.11,0,.22.07.33s0,.22.08.33c0-.25,0-.5-.08-.74s-.05-.39-.07-.59,0-.34-.08-.5,0-.3-.07-.44-.05-.27-.08-.4,0-.25-.07-.36,0-.23-.08-.34,0-.21-.07-.32l-.08-.29c0-.1,0-.19-.07-.28s0-.18-.08-.27-.05-.17-.07-.26,0-.16-.08-.24,0-.16-.07-.24-.05-.15-.08-.22a1.42,1.42,0,0,0-.07-.22l-.07-.21-.08-.21-.07-.19c0-.07,0-.13-.08-.19s0-.13-.07-.19l-.08-.18-.07-.18c0-.06-.05-.12-.08-.17s-.05-.11-.07-.17,0-.11-.08-.16L66,9.87l-.08-.15-.07-.16-.08-.15-.07-.14-.08-.15L65.51,9l-.08-.14-.07-.14-.08-.13-.07-.14-.07-.12-.08-.13L65,8.05l-.08-.12-.07-.12-.08-.12-.07-.12-.08-.12-.07-.11-.08-.11-.07-.12L64.31,7l-.07-.11-.08-.11-.07-.11L64,6.58l-.07-.1-.08-.1-.07-.1-.07-.1-.08-.1L63.57,6l-.08-.09-.07-.1-.08-.09-.07-.09-.08-.09-.07-.09L63,5.34,63,5.25l-.08-.08-.07-.09L62.74,5l-.07-.09-.08-.08-.07-.08-.08-.09-.07-.08-.08-.07-.07-.08-.07-.08-.08-.08L62,4.19l-.08-.07L61.85,4,61.77,4,61.7,3.9l-.08-.08-.07-.07-.08-.07-.07-.07-.08-.07-.07-.07-.08-.07-.07-.07L61,3.26,61,3.2l-.07-.07-.08-.06L60.72,3l-.07-.06-.07-.07-.08-.06-.07-.06-.08-.07-.07-.06-.08-.06-.07-.06-.08-.06L60,2.38l-.08-.06-.07-.06-.08-.06-.07-.05-.08-.06L59.53,2l-.08,0-.07-.06-.08,0-.07-.06-.07-.05-.08-.06L59,1.65l-.08,0-.07-.05-.08-.06-.07-.05-.08-.05-.07,0-.08-.05-.07-.05-.08-.05-.07-.05-.08,0h-.07l-.08,0L58,1l-.08,0-.07,0h-.08l-.07,0-.07,0-.08,0-.07,0-.08,0-.07,0-.08,0-.07,0h-.08L57,.78l-.08,0-.07,0-.08,0h-.07l-.08,0h-.07l-.08,0-.07,0h-.08l-.07,0h-.08l-.07,0H56l-.08,0h-.07l-.08,0h-.07l-.08,0h-.15l-.07,0h-.15l-.08,0H55l-.08,0h-.3l-.07,0H49.81l.07,0H50l.08,0h.29l.08,0h.07l.08,0h.15l.07,0,.08,0h.07l.08,0h.07l.08,0,.07,0h.08l.07,0,.08,0h.07l.07,0,.08,0,.07,0,.08,0,.07,0,.08,0,.07,0,.08,0,.07,0,.08,0,.07,0,.08,0,.07,0,.08,0,.07,0,.08,0,.07,0,.08,0,.07,0,.08,0,.07,0,.07,0,.08,0,.07,0,.08,0,.07,0,.08,0,.07,0,.08,0,.07,0,.08,0,.07,0,.08,0,.07,0,.08,0,.07,0,.08,0,.07,0,.08,0,.07,0,.07,0,.08,0,.07,0,.08,0,.07,0,.08,0,.07,0,.08,0,.07,0,.08,0,.07,0,.08,0,.07,0,.08,0,.07,0,.08,0,.07,0,.08,0,.07,0,.08,0,.07,0,.07,0,.08,0,.07,0,.08,0,.07,0,.08,0,.07,0,.08,0,.07,0,.08,0,.07,0,.08,0,.07,0,.08,0,.07,0,.08,0,.07,0,.08.05.07,0,.08,0,.07,0,.07,0,.08,0,.07,0,.08.05.07,0,.08,0,.07,0,.08,0,.07.05.08,0,.07,0,.08,0,.07.05.08,0,.07.05.08,0,.07,0,.08.05.07,0,.08.05.07.06.07,0,.08.05.07.06.08,0,.07.05.08.06.07.06.08.05.07.06.08.06.07.05.08.06.07.06.08.06.07.06.08.06.07.06.08.06.07.06.07.07.08.06.08.07.07.06.07.06.08.07.07.07.08.06.07.07.08.07.07.07.08.07.07.07L61.7,6l.07.07.08.08.07.07.08.07.07.07Z"/><path class="cls-3" d="M75,18c0-.19,0-.38,0-.57s0-.29,0-.44,0-.24-.05-.36,0-.21,0-.32a2.5,2.5,0,0,1,0-.29,2,2,0,0,1,0-.26,2,2,0,0,1,0-.24l-.06-.23a1.42,1.42,0,0,0,0-.22,1.94,1.94,0,0,0-.05-.2,1.46,1.46,0,0,0,0-.2,1.21,1.21,0,0,0,0-.18l0-.18,0-.17s0-.11-.05-.16,0-.11,0-.16a1,1,0,0,1,0-.16.88.88,0,0,1,0-.15.78.78,0,0,1,0-.14,1.21,1.21,0,0,1-.05-.14l-.06-.14L73.88,13l0-.13,0-.13,0-.13,0-.12-.05-.12,0-.11,0-.12a.54.54,0,0,1,0-.11l0-.11-.05-.11,0-.11-.06-.1,0,0,0-.06,0-.1,0-.11-.05-.1,0,0,0,0L73,11l0-.06,0-.06-.05-.06,0-.06,0-.07,0-.06,0-.06-.06-.06,0-.06-.05-.06,0-.06,0-.06,0-.06,0-.06-.05-.06,0-.06,0-.06,0-.06,0-.06L72,9.82l-.06-.06-.05-.06,0-.06,0-.05,0-.06,0-.06-.05-.06,0-.06,0-.06,0,0,0-.06-.05-.06,0-.06h0L71.24,9l0-.06,0,0,0-.06,0-.05L71,8.73l0-.05,0,0,0-.06,0-.05-.05,0,0-.05,0-.05-.06,0,0-.06,0,0,0-.05-.05-.05,0,0,0-.05,0,0,0,0-.05,0,0,0,0-.05,0,0,0,0-.06,0-.05,0,0,0,0,0,0,0,0,0-.05-.05,0,0,0,0,0,0,0,0-.05,0,0,0-.06,0,0,0,0,0,0,0,0,0-.05,0,0,0,0,0,0,0,0,0-.05,0,0,0,0,0,0,0-.06,0,0,0,0,0-.05,0,0,0,0,0,0,0,0,0-.05,0,0,0,0,0,0,0-.06,0,0,0,0,0-.05,0,0,0,0,0,0,0,0,0-.05,0,0,0,0,0,0,0,0,0-.06,0,0,0-.05,0,0,0,0,0,0,0,0,0-.05,0,0,0,0,0,0,0,0,0-.05,0,0,0-.06,0,0,0,0,0,0,0-.05,0,0,0,0,0,0,0,0,0-.05,0,0,0,0,0,0,0-.06,0,0,0,0,0-.05,0,0,0,0,0,0,0,0,0-.05,0,0,0,0,0,0,0,0,0-.06,0,0,0-.05,0,0,0,0,0,0,0,0,0-.05,0,0,0,0,0,0,0,0,0-.05,0,0,0-.06,0,0,0,0,0,0,0,0,0-.05,0,0,0,0,0,0,0,0,0-.05,0-.05,0,0,0-.06,0,0,0-.05,0,0,0,0,0-.05,0,0,0-.05,0,0,0,0,0-.05,0,0,0-.05,0-.06,0-.05,0,0,0,0,0L63,3l0,0-.05,0,0,0,0,0-.05,0,0,0h0l0,0,0,.06.05.06,0,.06,0,.06.05.06,0,.07.05.06,0,.06,0,.06.05.06.06.06.05.07,0,.06.05.07,0,.06,0,.07.05.06,0,.07.05.06,0,.07,0,.06.05.07,0,.07.06.06,0,.07.05.07.05.07,0,.07,0,.06,0,.07,0,.07.05.07,0,.07,0,.07,0,.07,0,.07.06.08,0,.07.05.07,0,.07,0,.07,0,.08,0,.07.05.08,0,.07L65,6l0,.07,0,.08.05.07,0,.08.06.08,0,.08,0,.08,0,.08,0,.07.05.08,0,.08,0,.08,0,.08,0,.09a.22.22,0,0,1,.05.08l0,.08,0,.09.06.08,0,.09,0,.08,0,.09.05.08,0,.09,0,.09,0,.09,0,.09.05.09,0,.09a.41.41,0,0,1,0,.09l0,.09.06.09,0,.1.05.09,0,.1,0,.09,0,.1,0,.1.05.1,0,.1,0,.1,0,.1,0,.1a.47.47,0,0,1,.05.1l0,.1.06.11,0,.11,0,.11,0,.1a.37.37,0,0,0,0,.11l.05.11,0,.12,0,.11,0,.12,0,.11.05.11a.69.69,0,0,1,0,.13.61.61,0,0,1,0,.12l.06.12,0,.12a.69.69,0,0,0,0,.13l0,.12.05.14,0,.13,0,.13s0,.09,0,.13l0,.14s0,.09.05.14l0,.14,0,.14.06.15a.88.88,0,0,0,0,.15.88.88,0,0,0,0,.15l0,.16a.88.88,0,0,0,.05.15l0,.17c0,.05,0,.11,0,.16l0,.17,0,.17c0,.06,0,.12.05.18a1.21,1.21,0,0,1,0,.18,1.8,1.8,0,0,1,0,.19,1.33,1.33,0,0,1,0,.19,1.94,1.94,0,0,1,0,.2l.06.21a1.6,1.6,0,0,0,0,.21,1.74,1.74,0,0,0,.05.22,1.89,1.89,0,0,0,0,.23c0,.08,0,.16,0,.24s0,.17,0,.25,0,.18,0,.26,0,.2.05.29,0,.2,0,.29,0,.22,0,.34,0,.23,0,.34,0,.26,0,.39,0,.31.05.46l.06.54c0,.24,0,.48,0,.72a29.21,29.21,0,0,1,0,3c0,.24,0,.49,0,.73l-.06.54c0,.16,0,.3-.05.45s0,.26,0,.39,0,.24,0,.35,0,.22,0,.33,0,.2,0,.3,0,.19-.05.28,0,.17,0,.26,0,.17,0,.26a1.89,1.89,0,0,0,0,.23c0,.08,0,.16,0,.23a2.25,2.25,0,0,0-.05.22l0,.21-.06.21a1.33,1.33,0,0,1,0,.19,1.46,1.46,0,0,1,0,.2,1.21,1.21,0,0,1,0,.18L69,29l-.05.17,0,.17,0,.17,0,.16,0,.16-.05.15,0,.15,0,.14,0,.15-.06.14,0,.14,0,.13-.05.13,0,.13,0,.13,0,.12,0,.12-.05.11,0,.12,0,.11,0,.11-.06.1v0l0,.09,0,.12-.05.1,0,.11,0,.11,0,.1,0,.11-.05.1,0,.1,0,.1,0,.1,0,.09-.06.1,0,.09-.05.09,0,0,0,.05,0,.09,0,.09,0,.1-.05.09,0,.09,0,.09,0,.09,0,.08-.05.09,0,.08-.06.09,0,.08,0,.09,0,.08-.05.08,0,.08,0,.08,0,.08,0,.08-.05.08,0,.07,0,.08,0,.08-.06.07,0,.08,0,.07-.05.07,0,.08,0,.07,0,.07,0,.07-.05.07,0,.07,0,.07,0,.07,0,.07-.06.07,0,.06-.05.07,0,.07,0,.06,0,.07,0,.06-.05.07,0,.06,0,.07,0,.06,0,.06-.05.06,0,.06-.06.07,0,.06,0,.06,0,.06,0,.06-.05,0,0,.06,0,.06,0,.06L64,38,64,38l-.05.06,0,.06-.06,0,0,.06-.05,0,0,.06,0,0-.05.06,0,.05-.05,0,0,0,0,.06-.05,0,0,.05-.05,0-.06.05-.05.06,0,.05,0,0-.05.05,0,0-.05,0,0,0,0,.05-.05,0,0,.05-.05,0,0,0,0,.05-.06,0-.05,0,0,0,0,.05-.05,0,0,0-.05,0,0,0,0,0,0,0,0,0,.05,0,0,0,.05,0,0,0,0,0,.05,0,.06,0,0,0,0,0,.05,0,0,0,.05,0,0,0,0,0,.05,0,0,0,.05,0,0,0,0,0,.05,0,.06,0,.05,0,0,0,.05,0,0,0,0,0,.05,0,0,0,.05,0,0,0,0,0,.05,0,0,0,.06,0,0,0,.05,0,.05,0,0,0,0,0,0,0,0,0,.05,0,0,0,0,0,0,0,0,0,.06,0,0,0,.05,0,0,0,0,0,0,0,0,0,.05,0,0,0,0,0,0,0,0,0,.05,0,0,0,.06,0,0,0,0,0,0,0,0,0,.05,0,0,0,0,0,0,0,0,0,.05,0,0,0,0,0,.06,0,0,0,0,0,0,0,.05,0,0,0,0,0,0,0,0,0,.05,0,0,0,0,0,0,0,.06,0,0,0,.05,0,0,0,0,0,0,0,0,0,.05-.05,0,0,0,0,0,0,0,0,.05-.05,0,0,.06,0,0-.05,0,0,0,0,0,0,.05-.05,0,0,0-.05,0,0,0,0,.05-.05,0,0,0,0,.06-.05,0,0,0,0,0-.05.05,0,0-.06,0,0,0-.05,0,0,.05,0,0-.05,0,0,.06-.06,0,0,0-.06,0,0,.05-.05,0-.06,0-.05,0-.06,0-.05.05-.06,0,0,0-.06,0-.06,0-.05.06-.06,0-.06.05-.06,0-.06,0-.06,0-.05,0-.06.05-.06,0-.07,0-.06,0-.06,0-.06.05-.06.06-.06,0-.07,0-.06,0-.06,0-.07.05-.06,0-.07,0-.06,0-.07,0-.07.05-.06,0-.07,0-.07,0-.06.06-.07,0-.07,0-.07.05-.07,0-.07,0-.07,0-.08,0-.07.05-.07,0-.07,0-.08h0l0-.08,0-.08.06-.08,0-.08.05-.09,0-.08,0-.08,0-.09,0-.08.05-.09,0-.09,0-.09,0-.09,0-.08.05-.09.06-.1.05-.09,0-.09,0-.09,0-.1,0-.09.05-.1,0-.1,0-.09,0-.11,0-.09.05-.1,0-.11.06-.1,0-.1,0-.11,0-.11,0-.11.05-.11,0-.11,0-.11,0-.11,0-.12.05-.12,0-.11,0-.12,0-.12.06-.13,0-.12.05-.13,0-.13,0-.13,0-.14,0-.13.05-.14,0-.14,0-.15a.58.58,0,0,0,0-.14l0-.15.05-.16L74,26l.05-.16,0-.17a1.54,1.54,0,0,1,0-.17l0-.17c0-.06,0-.12,0-.18l.05-.18c0-.07,0-.13,0-.19l0-.2a64206659811809.29,64206659811809.29,0,0,0,.1-.42,1.74,1.74,0,0,0,.05-.22,2,2,0,0,0,0-.24l.06-.25c0-.08,0-.17,0-.26a2.74,2.74,0,0,1,0-.28c0-.1,0-.21,0-.31s0-.23,0-.34,0-.25.05-.38,0-.31,0-.46,0-.39,0-.59A18.56,18.56,0,0,0,75,18Z"/><path class="cls-4" d="M36.86,2.4A21.83,21.83,0,0,0,13.62,24.14a21,21,0,0,0,1.9,8.92c0-.44-.06-.88,0-1.33.19-7.82,3.11-15.44,8.35-20.51C27.91,7.26,31.08,4.58,36.86,2.4Z"/><path class="cls-4" d="M55.41,54.58a20.54,20.54,0,0,1-3.95-1.19A28.22,28.22,0,0,1,48,56.28a18.61,18.61,0,0,0,7.38,1.45,19.27,19.27,0,0,0,10.75-3.29C62.48,55.74,59.36,55.36,55.41,54.58Z"/><path class="cls-4" d="M36.69,26.26a20.85,20.85,0,0,0-1.89,8.92,21.84,21.84,0,0,0,.85,5.67,19.39,19.39,0,0,0,2.54-2.42,3.08,3.08,0,0,1,.42-.39,32.77,32.77,0,0,1-2-10.45C36.63,27.14,36.66,26.7,36.69,26.26Z"/><path class="cls-5" d="M1.4,30.61C3.16,40,12.34,47.23,22.31,46.8c.49,0,1-.07,1.44-.13A24,24,0,0,1,1.4,30.61Z"/><path class="cls-5" d="M0,27.85c0,.48,0,1,0,1.45a28.77,28.77,0,0,0,1.08,7.88A21.16,21.16,0,0,0,17.6,47,21.77,21.77,0,0,1,0,27.85Z"/><path class="cls-5" d="M32.3,44.29H28.94l-.12,0h-.48l-.12,0H28.1l-.12,0h-.12l-.12,0h-.12l-.12,0h-.12l-.12,0-.12,0L27,44l-.12,0h-.12l-.12,0-.12,0-.12,0-.12,0-.12,0-.12,0-.12,0-.12,0-.12,0-.12,0-.12,0-.12,0-.12,0-.12,0-.12,0-.12,0-.12,0-.12,0-.12,0-.12,0-.12,0-.12,0-.11,0-.12,0-.12,0-.12,0-.12,0-.12,0-.12,0-.12,0-.12,0-.12,0-.12,0-.12,0-.12,0-.12,0-.12,0-.12,0-.12,0-.12,0-.12,0-.12,0-.12,0-.12,0-.12,0-.12,0-.12,0-.12,0-.12-.05-.12,0-.12,0-.12,0-.12-.05-.12,0-.12,0-.12,0L20,42.05l-.12,0-.12,0-.12-.05-.12,0-.12-.05-.12,0-.12,0L19,41.65l-.12-.06-.12-.05-.12,0-.12-.06-.12-.06-.12,0-.12-.06L18,41.2l-.12-.06-.12,0L17.67,41,17.55,41l-.12-.07-.12-.06-.12-.06-.12-.06L17,40.65l-.12-.06-.12-.07-.12-.06-.12-.07-.12-.07-.12-.07-.12-.07L16,40.11,15.87,40,15.75,40l-.12-.07-.12-.08-.12-.07-.12-.08-.12-.07L15,39.52l-.12-.08-.12-.08-.12-.08-.12-.08-.12-.08L14.31,39,14.19,39l-.12-.08L14,38.78l-.12-.08-.12-.09-.11-.09-.13-.09-.11-.09-.12-.1-.12-.09L13,38.06l-.12-.1a.58.58,0,0,1-.12-.1l-.12-.1-.12-.1-.12-.1-.12-.1a1.27,1.27,0,0,1-.12-.1L12,37.25l-.12-.1L11.8,37l-.12-.11-.12-.11-.12-.11-.12-.12-.12-.11-.12-.12L11,36.24l-.12-.12L10.72,36l-.12-.13-.12-.12-.12-.13-.12-.13-.12-.13L10,35.22l-.12-.13L9.76,35l-.12-.14-.12-.15-.12-.14-.12-.15-.12-.15L9,34.06l-.12-.16-.12-.16-.12-.16-.12-.16-.12-.17-.12-.18L8.2,32.9l-.12-.18L8,32.53l-.12-.19-.12-.19L7.6,32l-.12-.2-.12-.21-.12-.21-.12-.22L7,30.88l-.12-.24-.12-.23-.12-.25-.12-.26-.12-.27-.12-.28-.12-.29L6,28.76l-.12-.31-.12-.34-.12-.35-.12-.37L5.44,27l-.12-.43-.12-.47-.12-.52c0-.13-.06-.27-.08-.4L5,25q-.06-.33-.12-.63l-.12-.67L4.6,23l-.12-.83c0-.37-.09-.74-.12-1.1a17.67,17.67,0,0,1,0-3.17c0-.3.07-.6.12-.91l.12-.64.12-.52.12-.45L5,14.93l.12-.36.06-.17h0l-.06.09L5,14.68l-.12.2-.12.19-.12.21-.12.2-.12.21-.12.22-.12.22L4,16.36l-.12.24-.12.24-.12.25-.12.26-.12.27-.12.28-.12.3L3,18.51l-.12.33-.12.35-.12.37L2.56,20l-.12.45-.12.5-.12.57c0,.23-.08.47-.11.7S2,22.8,2,23.12c-.06.65-.1,1.33-.11,2A19.13,19.13,0,0,0,2,27.43c0,.29.08.58.13.87s.07.44.11.66l.12.55.12.49.12.44.12.4.12.38.12.35.12.32.12.32.12.3.12.28.12.27.12.26.12.26.12.24.12.24.12.23.12.22.12.21.12.22.12.2.12.2.12.19.12.2.12.18.12.18.12.18.12.17.12.18.12.16.12.16.12.17.12.15.12.16.12.15.12.15.12.15.12.14.12.14.12.14.12.14.12.13.12.13.12.13.12.13.12.13.12.12.12.13.12.12.12.12.12.11.12.12.12.11.12.11.12.12.12.1.12.11.12.11.12.1.12.1.12.11.12.1.12.1.12.09.12.1.12.09.12.1.12.09.12.09.12.09.12.09.12.09.12.08L11,42l.12.09.12.08.12.08.12.08.12.08.12.08.12.08.12.07.12.08.12.07.12.08.12.07.12.07.12.07.12.07.12.07.12.07.12.06.12.07.12.07.11.06.13.06.11.06.12.07.12.06.12.06.12.05.12.06.12.06.12.06.12,0,.12.06.12,0,.12.05.12,0,.12.06.12,0,.12,0,.12.05.12,0,.12,0,.12.05.12,0,.12,0,.12,0,.12.05.12,0,.12,0,.12,0L17,45l.12,0,.12,0,.12,0,.12,0,.12,0,.12,0,.12,0,.12,0,.12,0,.12,0,.12,0,.12,0,.12,0,.12,0,.12,0,.12,0,.12,0,.12,0,.12,0,.12,0,.12,0,.12,0,.12,0,.12,0,.12,0,.12,0,.12,0,.12,0,.12,0,.12,0h.12l.12,0,.12,0L21,46h.12l.12,0h.12l.12,0h.36l.12,0h4.07l.12,0h.24l.12,0,.12,0h.12l.12,0,.12,0,.12,0,.12,0,.12,0,.12,0,.12,0,.12,0,.12,0,.12,0,.12,0,.12,0,.12,0,.12,0,.12,0,.12,0,.12,0,.12,0,.12,0,.12,0,.12,0,.12,0,.12,0,.12,0,.12,0,.12,0,.12,0,.12,0,.12,0,.12,0,.12,0,.12,0,.12,0,.12,0,.12,0,.12,0,.12,0,.12,0,.12-.05.12,0,.12,0,.12-.05.12,0,.12-.05.12,0,.12-.06.12,0,.12,0H32.3Z"/><path class="cls-5" d="M22.39,29A24,24,0,0,1,44.74,12.91c-.47-.06-1-.11-1.44-.13C33.33,12.35,24.15,19.59,22.39,29Z"/><path class="cls-5" d="M38.59,12.6a21.13,21.13,0,0,0-16.52,9.81A28.72,28.72,0,0,0,21,30.29c0,.48,0,1,0,1.44A21.77,21.77,0,0,1,38.59,12.6Z"/><path class="cls-5" d="M53.41,15.26l-.12,0-.12-.06-.12-.05-.12,0L52.81,15,52.69,15l-.12,0-.12-.05-.12,0-.12,0-.12,0-.12,0-.12,0-.12,0-.12,0-.12,0-.12,0-.12,0-.12,0-.12,0-.12,0-.12,0-.12,0-.12,0-.12,0-.12,0-.12,0-.12,0-.12,0-.12,0-.12,0-.12,0-.12,0-.12,0-.12,0-.12,0-.12,0-.12,0-.12,0-.12,0-.12,0-.12,0-.12,0-.12,0-.12,0-.12,0h-.12l-.12,0-.12,0h-.12l-.12,0h-.12l-.12,0H42.62l-.12,0h-.12l-.12,0h-.12l-.12,0H41.9l-.12,0-.12,0-.12,0-.12,0-.12,0-.12,0-.12,0-.12,0-.12,0-.12,0-.12,0-.12,0-.12,0-.12,0-.12,0L40,14l-.12,0-.12,0-.12,0-.12,0-.12,0-.12,0-.12,0-.12,0-.12,0-.12,0-.12,0-.12,0-.12,0-.12,0-.12,0-.12,0-.12,0-.12,0-.12,0-.12,0-.12.05-.12,0-.12,0-.12,0-.12.05-.12,0-.12,0-.12.05-.12,0-.12.05-.12.05-.12,0-.12.05-.12,0-.12.06-.12.05-.12.06-.12.05-.12.06-.12.06-.12.06-.12.06-.12.06-.12.06-.12.06-.12.06-.12.07-.12.06-.12.07-.12.06a.47.47,0,0,1-.12.07l-.12.07-.11.07-.12.07-.12.07a.62.62,0,0,0-.12.08l-.12.07-.12.07L32.9,17l-.12.08-.11.07a.57.57,0,0,1-.13.08l-.11.08-.12.08-.12.09-.12.08-.12.08-.12.09-.12.08-.12.09-.12.09-.12.09-.12.09-.12.09-.12.1-.12.09-.12.1-.12.1-.12.1-.12.1-.12.1-.12.1-.12.1-.12.11-.12.11-.12.11-.12.11-.12.11-.12.11-.12.12-.12.12-.12.12-.12.12-.12.12-.12.12-.12.13-.12.13-.12.13-.12.13-.12.14-.12.13-.12.14-.12.14-.12.15-.12.14-.12.15-.12.15-.12.16-.12.16-.12.16-.12.16-.12.17-.12.17-.12.17-.12.18-.12.18-.12.19-.12.19-.12.19-.12.2-.12.2-.12.22-.12.21-.12.23-.12.22-.12.24-.12.24-.12.26-.12.26-.12.27-.12.29-.12.29-.12.32-.12.33-.12.34-.12.38-.12.4-.12.44-.12.49-.12.56-.12.65-.12.87a19.13,19.13,0,0,0-.11,2.28c0,.7.05,1.37.11,2q.06.48.12.93l.12.7.12.57.12.5.12.45.12.41c0,.1.07.21.11.32h0l.12,0,.12,0,.12,0,.12,0,.12,0,.12,0,.12,0,.12,0,.12,0,.12,0,.12,0,.12,0,.06,0a19.19,19.19,0,0,1,.06-2.14q0-.55.12-1.11l.12-.84.12-.73.12-.66.12-.63,0-.19c0-.13.05-.26.08-.39l.12-.53.12-.47.12-.43.12-.4.12-.38.12-.35.12-.33.12-.32.12-.3.12-.29.12-.28.12-.27.12-.25.12-.25.12-.24L28,28.7l.12-.22.12-.23.12-.21.12-.21.12-.2.12-.2.12-.19.12-.19.12-.19.12-.17.12-.18.12-.17.12-.17.12-.17.12-.16.12-.16.12-.16.12-.15.12-.15.12-.15.12-.15.12-.14.12-.14.12-.14.12-.14.12-.13.12-.13.12-.14.12-.12.12-.13.12-.13.12-.12.12-.12.12-.12.12-.11.12-.12.12-.11.11-.12a.69.69,0,0,0,.13-.11l.11-.11a.63.63,0,0,0,.12-.11l.13-.1.12-.1a.63.63,0,0,1,.12-.11.63.63,0,0,1,.12-.1l.12-.1.12-.1.11-.1.12-.1.12-.09.12-.1.12-.09.12-.09.12-.1.12-.09L34.7,21l.12-.09.12-.09.12-.09.12-.08.12-.09.12-.08.12-.08.12-.08.12-.08.12-.08.12-.08.12-.07.12-.08.12-.08.12-.07.12-.07.12-.08.12-.07.12-.07.12-.07.12-.07.12-.07.12-.07.12-.06.12-.07.12-.07.12-.06.12-.06.12-.07.12-.06.12-.06.12-.06.12-.07.12-.05.12-.06.12-.06.12-.06.12-.06.12-.05.12-.06.12,0,.12-.06.12-.05.12,0,.12-.06.12-.05.12,0,.12-.05.12-.05.12-.05.12-.05.12,0,.12,0,.12,0,.12-.05.12,0,.12-.05.12,0,.12-.05.12,0,.12,0,.12-.05.12,0,.12,0,.12,0,.12,0,.12,0,.12,0,.12,0,.12,0,.12,0,.12,0,.12,0,.12,0,.12,0,.12,0,.11,0,.12,0,.12,0,.12,0,.12,0,.12,0,.12,0,.12,0a.5.5,0,0,1,.13,0l.12,0,.11,0,.12,0,.12,0,.12,0,.12,0,.12,0,.12,0L46,16l.12,0,.12,0,.12,0,.12,0,.12,0,.12,0,.12,0,.12,0,.12,0,.12,0,.12,0,.12,0,.12,0,.12,0,.12,0,.12,0,.12,0,.12,0,.12,0h.12l.12,0h.12l.12,0,.12,0h.24l.12,0h.12l.12,0h.6l.12,0h3.36Z"/><path class="cls-6" d="M360.4,41.19a9.61,9.61,0,0,1-2.14.65,14.31,14.31,0,0,1-2.67.24,8.55,8.55,0,0,1-2.89-.49,7.09,7.09,0,0,1-2.36-1.46,6.73,6.73,0,0,1-1.59-2.37,8.92,8.92,0,0,1-.58-3.27,8.37,8.37,0,0,1,.87-3.94,6.48,6.48,0,0,1,2.53-2.66,7.54,7.54,0,0,1,3.85-1,14.78,14.78,0,0,1,2.81.25,8.43,8.43,0,0,1,1.9.58l1.33-6.26a15.72,15.72,0,0,0-2-.57,17.56,17.56,0,0,0-2.21-.35,21.56,21.56,0,0,0-2.26-.13,18.79,18.79,0,0,0-6.67,1.13,13.71,13.71,0,0,0-4.85,3.1,13,13,0,0,0-3,4.57,15.63,15.63,0,0,0-1,5.59,14.93,14.93,0,0,0,1.78,7.36,12,12,0,0,0,5,4.78,16.3,16.3,0,0,0,7.6,1.7,24.48,24.48,0,0,0,3.05-.17A20.17,20.17,0,0,0,359.5,48a10.17,10.17,0,0,0,1.9-.65ZM311.74,21V48.11h8.42V37.37H321a4.85,4.85,0,0,1,3.37,1.22,8.49,8.49,0,0,1,2.22,3.54c.52,1.44,1,2.65,1.34,3.64a15.43,15.43,0,0,0,1.1,2.34h8.8q-.66-1.29-1.23-2.7c-.38-.95-.74-1.88-1.07-2.79s-.66-1.73-1-2.48a22.13,22.13,0,0,0-1.74-3.55A10.11,10.11,0,0,0,330.59,34a6.34,6.34,0,0,0-2.85-1.29l10-11.68h-9.8L321,31.83h-.88V21Zm-33.1,0V48.11h10.24l1.92-4.32c.64-1.46,1.29-2.91,1.92-4.33s1.23-2.76,1.81-4c.36-.84.69-1.62,1-2.36s.59-1.49.89-2.27.61-1.65,1-2.62h.22c-.06,1.13-.11,2.13-.16,3s-.09,1.66-.14,2.36-.07,1.38-.1,2-.05,1.32-.07,2,0,1.46,0,2.29v8.25h8V21H294.75l-5.26,11.62c-.36.84-.7,1.67-1,2.46s-.62,1.61-1,2.47-.71,1.8-1.12,2.83l-.22-.06c.07-1.21.14-2.38.21-3.53s.12-2.31.16-3.53.07-2.53.07-4V21ZM264.3,48.11h8.19l-2-37.31H259.43L255.5,23.2c-.43,1.39-.85,2.84-1.27,4.35s-.81,3-1.2,4.57-.74,3-1.08,4.47h-.22q-.61-3.29-1.43-6.68c-.53-2.27-1.11-4.49-1.72-6.66L244.92,10.8H233.68L231.3,48.11h7.81l.72-14.17c.07-1.56.15-3.21.22-5s.14-3.49.2-5.27.13-3.53.19-5.22h.11c.31,1.64.65,3.29,1,5s.75,3.33,1.15,5,.8,3.19,1.21,4.68l4,14.39h6.59L259,32.94q.72-2.2,1.46-4.63c.49-1.62,1-3.27,1.44-4.93s.9-3.29,1.31-4.89h.11c0,1.81,0,3.61,0,5.39s.08,3.51.13,5.19.1,3.25.16,4.76ZM217,38.26a5.85,5.85,0,0,1,0,.73,3.78,3.78,0,0,1-.13.7,4.17,4.17,0,0,1-.92,1.57,4.9,4.9,0,0,1-1.53,1.11,4.58,4.58,0,0,1-1.92.43,4,4,0,0,1-1.7-.36,2.71,2.71,0,0,1-1.18-1.07,3.56,3.56,0,0,1-.44-1.79,3.35,3.35,0,0,1,1.05-2.53A6.2,6.2,0,0,1,213,35.71a17.45,17.45,0,0,1,4-.39Zm8.14-6.15a16.61,16.61,0,0,0-.58-4.54,9.86,9.86,0,0,0-2-3.74A9,9,0,0,0,219,21.31a15.49,15.49,0,0,0-5.66-.94,24.85,24.85,0,0,0-4.5.4,23.05,23.05,0,0,0-3.54.94,16.33,16.33,0,0,0-2.48,1.1l1.55,5.43a11.64,11.64,0,0,1,2.12-1,17.67,17.67,0,0,1,2.58-.74,14.48,14.48,0,0,1,2.78-.28,8.29,8.29,0,0,1,2.52.34,3.83,3.83,0,0,1,1.5.87,2.85,2.85,0,0,1,.72,1.15,3.57,3.57,0,0,1,.18,1.18v.33a31.09,31.09,0,0,0-6.52.63,16,16,0,0,0-5,1.91A9.22,9.22,0,0,0,202,35.83a9,9,0,0,0-1.13,4.59,8.2,8.2,0,0,0,.6,3.11,7.79,7.79,0,0,0,1.71,2.65A8,8,0,0,0,205.92,48a9.69,9.69,0,0,0,3.68.69,11.27,11.27,0,0,0,4.42-.85,8.63,8.63,0,0,0,3.33-2.47h.17l.5,2.71h7.58a16.59,16.59,0,0,1-.26-1.79c-.06-.69-.11-1.44-.14-2.25s0-1.64,0-2.49Zm-47.22.67c0-.25,0-.51,0-.77a6.86,6.86,0,0,1,.13-.73,5.7,5.7,0,0,1,1-2.21,5.3,5.3,0,0,1,1.77-1.5,4.79,4.79,0,0,1,2.24-.55,5.12,5.12,0,0,1,3.16,1,6.14,6.14,0,0,1,1.91,2.7,11.08,11.08,0,0,1,.63,3.88,10.8,10.8,0,0,1-.69,4,5.88,5.88,0,0,1-2,2.65,5.22,5.22,0,0,1-3.13,1,5,5,0,0,1-2.23-.52,5.26,5.26,0,0,1-1.72-1.42,5.68,5.68,0,0,1-1-2c0-.28-.1-.56-.13-.85s0-.59,0-.93Zm-8.42,26.29h8.42V45.62h.11a6.08,6.08,0,0,0,1.64,1.59,8.41,8.41,0,0,0,2.38,1.1,11,11,0,0,0,3,.41,12,12,0,0,0,3.6-.56A11.69,11.69,0,0,0,192,46.45a12.07,12.07,0,0,0,2.78-2.87,14.13,14.13,0,0,0,1.88-4.07,19.06,19.06,0,0,0,.7-5.3,17.62,17.62,0,0,0-.92-5.79A13,13,0,0,0,194,24.08a10.73,10.73,0,0,0-3.59-2.71,9.84,9.84,0,0,0-4.25-.94,11.84,11.84,0,0,0-5.24,1.13,9.83,9.83,0,0,0-3.78,3.24H177L176.61,21H169.3c.06,1.27.11,2.66.16,4.16s.06,3.15.06,4.92Zm-33.1-38V48.11h10.24l1.92-4.32c.64-1.46,1.29-2.91,1.92-4.33s1.23-2.76,1.81-4c.36-.84.69-1.62,1-2.36s.59-1.49.89-2.27.61-1.65.95-2.62h.22c-.06,1.13-.11,2.13-.16,3s-.09,1.66-.14,2.36-.07,1.38-.1,2,0,1.32-.07,2,0,1.46,0,2.29v8.25h8V21H152.53l-5.26,11.62c-.36.84-.7,1.67-1,2.46s-.62,1.61-1,2.47-.71,1.8-1.12,2.83l-.22-.06c.07-1.21.14-2.38.21-3.53s.12-2.31.16-3.53.07-2.53.07-4V21ZM122.08,48.11h8.19l-2-37.31H117.21l-3.93,12.4c-.43,1.39-.85,2.84-1.27,4.35s-.81,3-1.2,4.57-.75,3-1.08,4.47h-.22q-.62-3.29-1.43-6.68c-.53-2.27-1.12-4.49-1.72-6.66L102.7,10.8H91.46L89.08,48.11h7.81l.72-14.17c.07-1.56.15-3.21.22-5s.14-3.49.2-5.27.13-3.53.19-5.22h.11c.31,1.64.65,3.29,1,5s.75,3.33,1.15,5,.8,3.19,1.21,4.68l4,14.39h6.59l4.54-14.56q.72-2.2,1.46-4.63c.49-1.62,1-3.27,1.44-4.93s.9-3.29,1.31-4.89h.11c0,1.81,0,3.61,0,5.39s.08,3.51.13,5.19.1,3.25.16,4.76Z"/><path class="cls-7" d="M26.63,2.32l.06,0,.06,0,.06,0,.07,0,.06,0,.06,0,.07,0,.06,0,.06,0,.07,0,.06,0,.06,0,.07,0,.06,0,.06,0,.07,0,.06,0,.06,0,.07,0,.06,0,.06,0,.07,0,.06,0,.06,0,.07,0,.06,0,.06,0,.07,0,.06,0,.06,0,.07,0,.06,0,.06,0,.07,0,.06,0,.06,0,.06,0H28.9l-.06,0h-.19l-.06,0h-.13l-.06,0h-.07l-.06,0h-.06l-.07,0h-.06l-.06,0H28l-.06,0h-.06l-.07,0-.06,0h-.06l-.07,0-.06,0-.06,0h-.07l-.06,0-.06,0-.07,0-.06,0-.06,0-.07,0-.06,0-.06,0h-.07l-.06,0-.06,0-.06,0-.07,0-.06,0-.07,0-.06,0-.06,0-.07,0-.06,0-.06,0-.07,0-.06,0-.06,0-.07,0-.06,0-.06,0-.07,0-.06,0-.06,0-.06,0-.07,0-.06,0-.06,0-.07,0-.06,0-.06,0-.07,0-.06,0-.06,0-.07,0-.06,0-.06,0-.07,0-.06,0-.06,0-.07,0-.06,0-.06,0-.07,0-.06,0-.06,0-.07,0-.06,0-.06,0-.07,0-.06,0-.06,0-.07,0-.06,0-.06,0-.07,0-.06,0-.06,0-.07,0-.06,0-.06,0-.07,0-.06,0-.06,0-.07,0-.06,0-.06,0-.07,0-.06,0-.06,0-.07,0-.06,0-.06,0-.07,0-.06,0-.06,0-.07,0-.06,0-.06,0-.07,0-.06,0-.06,0-.07,0-.06,0-.06,0-.07,0-.06,0-.06,0-.07,0-.06.05-.06,0-.07.05-.06,0-.06,0-.07,0L21,5l-.06,0-.07.05-.06,0-.06,0-.07,0-.06,0-.06.05-.07,0-.06,0-.06,0-.07.06-.06,0-.06,0-.07.06-.06,0L20,5.84l-.07,0L19.85,6,19.79,6l-.07,0-.06.06-.06.06-.07.05-.06.06-.06.06-.07.06-.06.06-.06.06-.07.06-.06.07L19,6.72,19,6.78l-.06.06-.06.07L18.77,7,18.71,7l-.06.06-.07.07-.06.07-.06.06-.07.07-.06.07-.06.07-.07.07-.06.07-.06.07L18,7.79,18,7.86l-.06.08L17.82,8l-.06.07-.06.08-.07.08-.06.07-.06.08-.06.08-.07.08-.06.07-.07.08-.06.08-.06.09L17.07,9,17,9l-.06.09-.07.08-.06.09-.06.09-.06.08-.07.09-.06.09-.06.09-.07.09-.06.1-.06.09-.07.1-.06.09-.06.1-.07.1-.06.1-.06.1-.07.1-.06.1-.06.11-.07.1-.06.11-.06.11-.07.11-.06.11-.06.12-.07.11-.06.12-.06.12L15.1,12l-.06.12-.06.13-.07.13-.06.12-.06.13-.07.14-.06.13-.06.14-.07.14-.06.15-.06.14-.07.16-.06.15-.06.16-.07.16-.06.16-.06.17c0,.06,0,.11-.07.17l-.06.18-.06.19-.07.19-.06.19-.06.21a1.72,1.72,0,0,0-.07.21l-.06.22-.06.23a2.17,2.17,0,0,0-.07.24l-.06.25-.06.27c0,.09,0,.19-.07.28l-.06.31-.06.34c0,.13-.05.25-.07.37l-.06.42-.06.51c0,.22-.05.43-.07.65a19.48,19.48,0,0,0,0,2.42c0,.21,0,.42,0,.63s0,.39.07.59l0,.21c0-.39,0-.79,0-1.18l.06-.84c0-.2,0-.4.07-.6l.06-.48.06-.42c0-.12,0-.25.07-.37l.06-.35.06-.32c0-.09,0-.19.07-.29l.06-.28.06-.26a2.5,2.5,0,0,1,.07-.26l.06-.24.06-.23a1.87,1.87,0,0,1,.07-.22l.06-.22L14,17a1.18,1.18,0,0,1,.07-.2l.06-.2.06-.19.07-.18.06-.18.06-.18.07-.17.06-.17.06-.16.07-.16.06-.16.06-.15a1,1,0,0,1,.07-.15l.06-.15.06-.15s0-.09.07-.14l.06-.14L15.1,14a.83.83,0,0,1,.07-.13l.06-.14.06-.13.07-.13.06-.13.06-.12.07-.13.06-.12.06-.12.07-.12.06-.12.06-.11.07-.12.06-.11.06-.12.07-.1.06-.11.06-.11.07-.11.06-.1.06-.11a.61.61,0,0,1,.07-.1l.06-.1.06-.1.07-.11.06-.09.06-.1.06-.1.07-.09.06-.1.07-.09.06-.1.06-.09.06-.09.07-.09.06-.09.07-.09.06-.09.06-.08.06-.09.07-.08.06-.09.06-.08.07-.09L18,9.32,18,9.24l.07-.08.06-.08L18.2,9l.07-.08.06-.08.06-.08.07-.07.06-.08.06-.08.07-.07.06-.08.06-.07.07-.07.06-.08L19,8.09,19,8,19.09,8l.06-.07.07-.07.06-.07.06-.07.07-.07.06-.07.06-.06.07-.07.06-.07.06-.06.07-.07.06-.06.06-.07L20,7,20,7l.06-.07.07-.06.06-.06.06-.06.07-.06.06-.06.06-.07.07-.06.06,0,.06-.06.07-.06.06-.06.06-.06.07,0L21,6.05,21.05,6l.07-.06.06,0,.06-.06.07-.05.06,0,.06-.06.07,0,.06-.06.06,0,.07,0,.06,0,.06-.06.07,0,.06,0,.06,0,.07-.05.06,0,.06,0,.07,0,.06,0,.06-.05.07,0,.06,0,.06,0,.07,0,.06,0,.06,0,.07-.05.06,0,.06,0,.07,0,.06,0,.06,0,.07,0,.06,0,.06,0,.07,0,.06,0,.06,0,.07,0,.06,0,.06,0,.07,0,.06,0,.06-.05.07,0,.06,0,.06,0,.07,0,.06,0,.06,0,.07,0,.06,0,.06,0,.07,0,.06,0,.06,0,.07,0,.06,0,.06,0,.07,0,.06,0,.06,0,.07,0,.06,0,.06,0,.07,0,.06,0,.06,0,.07,0,.06,0,.06,0,.06,0,.07,0,.06,0,.06,0,.07,0,.06,0,.06,0,.07,0,.06,0,.06,0,.07,0,.06,0,.06,0,.07,0,.06,0Z"/><path class="cls-7" d="M17.83,5l-.08.09-.07.09-.08.08-.07.09-.08.09-.07.09-.08.09-.07.09-.08.1-.07.09L17,6l-.07.1-.07.1-.08.1-.07.1-.08.1-.07.1-.08.1-.07.11-.08.11L16.26,7l-.08.1-.07.12L16,7.34,16,7.45l-.08.12-.07.12-.08.12-.07.12-.08.12-.07.13-.07.13-.08.13-.07.13-.08.13-.07.14L15.06,9,15,9.12l-.08.15-.07.14-.08.15-.07.16-.08.15-.07.17-.08.16c0,.05-.05.11-.07.17s-.05.11-.08.17l-.07.18-.08.18-.07.18-.08.2-.07.19a1.72,1.72,0,0,0-.07.21,1.8,1.8,0,0,0-.08.21c0,.07,0,.14-.07.22s-.05.15-.08.22-.05.16-.07.24-.05.16-.08.24-.05.17-.07.26-.05.17-.08.26-.05.19-.07.29,0,.19-.08.29,0,.21-.07.32,0,.22-.08.33,0,.24-.07.37-.05.26-.08.4-.05.29-.07.44-.05.33-.08.5-.05.39-.07.59-.05.49-.08.74c0-.11.05-.22.08-.33s.05-.22.07-.33,0-.2.08-.3,0-.19.07-.29,0-.18.08-.27,0-.18.07-.27l.08-.26c0-.08.05-.16.07-.24s.05-.16.08-.24.05-.15.07-.22l.08-.23c0-.07.05-.14.07-.21l.08-.21.07-.21c0-.06,0-.13.08-.19l.07-.19c0-.06.05-.13.08-.19l.07-.18.07-.18.08-.18.07-.16c0-.06.05-.12.08-.17s0-.11.07-.17l.08-.15c0-.06,0-.11.07-.16l.08-.15.07-.15.08-.15.07-.14.08-.15c0-.05.05-.09.07-.14l.08-.13c0-.05,0-.09.07-.14l.08-.13s0-.09.07-.13l.08-.13a.83.83,0,0,1,.07-.13l.08-.12a.75.75,0,0,1,.07-.12l.07-.12.08-.13.07-.11.08-.12.07-.11L16,9.45l.07-.1a1,1,0,0,1,.08-.11l.07-.11L16.26,9l.07-.1.08-.11.07-.1.08-.1.07-.1.08-.1.07-.1.08-.09.07-.1L17,8l.08-.09.07-.1.08-.09.07-.09.08-.08.07-.09.08-.09.07-.09.08-.08.07-.08.08-.09L17.9,7,18,6.9l.07-.08.08-.08.07-.08.08-.08.07-.07.07-.08.08-.07.07-.08.08-.07.07-.07.08-.08L18.87,6,19,5.92A.46.46,0,0,1,19,5.85l.08-.07.07-.07.08-.07.07-.07.08-.06.07-.07.08-.07.07-.06.08-.06.07-.07.07-.06.08-.07L20,5l.08-.06.07-.06.08-.06.07-.06.08-.06.07-.06.08-.06.07-.05.08-.06.07-.06.08-.05.07-.06L21,4.23,21,4.18l.08,0,.07-.06L21.27,4l.07,0,.08-.06.07-.05.07,0,.08-.05.07,0,.08,0,.07-.05.08,0L22,3.51l.08,0,.07,0,.08,0,.07-.05.08,0,.07,0,.08,0,.07,0,.08-.05.07,0,.08,0,.07,0,.07,0,.08,0,.07,0,.08,0,.07,0,.08,0,.07,0,.08,0,.07,0,.08,0,.07,0,.08,0,.07,0,.08,0,.07,0,.08,0,.07,0,.08,0,.07,0,.07,0,.08,0,.08,0,.07,0,.07,0,.08,0,.07,0,.08,0,.07,0,.08,0,.07,0,.08,0,.07,0,.08,0,.07,0,.08,0,.07,0,.08,0,.07,0,.08,0,.07,0,.08,0,.07,0,.07,0,.08,0,.07,0,.08,0,.07,0,.08,0,.07,0,.08,0,.07,0,.08,0,.07,0,.08,0,.07,0,.08,0,.07,0,.08,0,.07,0,.08,0,.07,0,.07,0,.08,0,.07,0,.08,0,.07,0,.08,0,.07,0,.08,0,.07,0,.08,0,.07,0,.08,0,.07,0,.08,0,.07,0,.08,0,.07,0,.08,0,.07,0,.07,0H29l.08,0,.07,0,.07,0h.08l.07,0,.08,0h.07l.08,0h.07l.08,0,.07,0H30l.08,0h.15l.07,0h.3l.07,0H26.12l-.07,0H25.6l-.07,0h-.15l-.08,0h-.15l-.07,0h-.15l-.08,0h-.07l-.08,0h-.07l-.07,0h-.08L24.4.6h-.07l-.07,0h-.08l-.07,0L24,.68H24l-.08,0-.07,0h-.08l-.07,0-.08,0-.07,0h-.08l-.07,0-.08,0-.07,0-.08,0-.07,0L23,.93h-.07l-.07,0h-.08l-.07,0-.08,0-.07,0-.08,0h-.07l-.08,0-.07.05-.08.05-.07.05L22,1.34l-.07,0-.08.05-.07.05-.08.06-.07.05-.08,0-.07.05-.07.06-.08.05-.07.06-.08,0L21.12,2,21,2,21,2.09l-.08.06-.07.05-.08.06-.07.06-.08.06-.07.06-.08.06-.07.06-.08.06-.07.06-.08.06-.07.07L20,2.87l-.07.07L19.84,3l-.07.07-.07.06-.08.07-.07.06-.08.07-.07.07-.08.07-.07.07-.08.07-.07.07L19,3.75,19,3.82l-.08.08L18.8,4,18.72,4l-.07.08-.08.07-.07.08-.08.08-.07.08-.07.07-.08.08-.07.08-.08.09L18,4.83l-.08.08Z"/><path class="cls-7" d="M18.41,39.84l-.05,0-.05,0,0,0-.05-.05-.05,0-.05,0-.05,0,0-.05-.05,0-.06,0,0-.05-.05,0-.05-.05-.05,0-.05,0,0,0L17.55,39l-.05,0-.05-.05-.05-.06,0-.05-.06,0-.05-.05,0,0-.05,0-.05-.06-.05,0L17,38.47l0-.06-.05,0-.05-.06-.05,0-.05-.06,0,0-.05-.06L16.58,38l0-.05-.05-.06-.05-.06-.05-.06-.05-.06,0,0-.05-.06-.05-.06-.05-.06-.05-.06,0-.07L16,37.31l-.05-.06-.06-.06,0-.06-.05-.07,0-.06-.05-.07-.05-.06,0-.07-.05-.06,0-.07-.05-.07-.05-.06,0-.07-.06-.07,0-.07-.05-.07-.05-.07,0-.07L15,36.05,15,36l-.05-.07-.05-.08,0-.07-.05-.07,0-.08-.05-.07-.05-.08-.06-.08-.05-.07-.05-.08,0-.08-.05-.08,0-.08-.05-.08-.05-.08,0-.08-.05-.09,0-.08L14,34.49,14,34.41l-.06-.09-.05-.09-.05-.08,0-.09L13.69,34l0-.09-.05-.1-.05-.09,0-.09,0-.05,0,0,0-.09-.05-.09-.05-.1-.06-.09-.05-.1,0-.1-.05-.1-.05-.1,0-.11-.05-.1,0-.11-.05-.11-.05-.11,0-.11,0-.09v0l0-.1-.05-.11-.06-.11,0-.12-.05-.11-.05-.12,0-.13-.05-.12,0-.13-.05-.13-.05-.14,0-.13L12,30.38l0-.15-.06-.14-.05-.15,0-.16-.05-.15,0-.16-.05-.17-.05-.17,0-.17c0-.06,0-.12-.05-.18s0-.12,0-.18a1.46,1.46,0,0,1-.05-.2,1.33,1.33,0,0,1-.05-.19l0-.21-.06-.21a2.25,2.25,0,0,0-.05-.22c0-.07,0-.15,0-.23a1.89,1.89,0,0,0-.05-.23,2.38,2.38,0,0,0,0-.26c0-.09,0-.17-.05-.26s0-.19-.05-.28,0-.2,0-.3,0-.22-.05-.33,0-.23,0-.35,0-.26-.05-.39,0-.3-.05-.45,0-.36,0-.54,0-.49-.05-.74a24.18,24.18,0,0,1,0-2.95c0-.24,0-.48.05-.72s0-.36,0-.54,0-.3.05-.45,0-.26.05-.4,0-.23,0-.34,0-.23.05-.34,0-.19,0-.29,0-.19.05-.29a2,2,0,0,0,.05-.26,1.84,1.84,0,0,0,0-.25,2,2,0,0,0,.05-.24,1.89,1.89,0,0,0,0-.23,1.74,1.74,0,0,0,.05-.22l.06-.21a1.6,1.6,0,0,1,0-.21,1.94,1.94,0,0,1,.05-.2,1.33,1.33,0,0,1,.05-.19,1.21,1.21,0,0,1,0-.18c0-.07,0-.13.05-.19s0-.12,0-.18l.05-.17.05-.17a1,1,0,0,0,0-.16,1.09,1.09,0,0,0,.05-.17.88.88,0,0,0,0-.15l.05-.16L12,13.2a.88.88,0,0,1,0-.15.88.88,0,0,1,.05-.15l0-.14.05-.14s0-.1.05-.14l0-.14s0-.09.05-.13l0-.13.05-.13a.78.78,0,0,0,.05-.14l0-.12.06-.13.05-.12,0-.12a.61.61,0,0,1,.05-.12l0-.13.05-.11.05-.11,0-.12.05-.11,0-.12.05-.11a.37.37,0,0,0,.05-.11l0-.1.05-.11.06-.11.05-.11a.47.47,0,0,1,.05-.1l0-.1.05-.1,0-.1.05-.1.05-.1,0-.1.05-.1a.93.93,0,0,0,0-.1l.05-.09.05-.1L14,8.67l.05-.1.05-.09,0-.09a.41.41,0,0,1,.05-.09l0-.09.05-.09L14.3,8l0-.09.05-.09,0-.09.05-.08a.41.41,0,0,0,.05-.09l.06-.08.05-.09.05-.08,0-.09.05-.08,0-.08L14.91,7,15,6.92l0-.08.05-.08,0-.08.05-.07.05-.08,0-.08.06-.08,0-.08.05-.08.05-.07,0-.08L15.57,6l0-.08.05-.07.05-.08,0-.07.05-.08,0-.07.06-.07L16,5.4,16,5.33l0-.08.05-.07.05-.07L16.23,5,16.28,5l0-.07.05-.07.05-.07.05-.06.05-.07,0-.07.06-.07.05-.07,0-.06.05-.07.05-.07.05-.06.05-.07L17,4,17,4l.05-.06.05-.07.05-.06,0-.07.05-.06.06-.07,0-.06.05-.06.05-.06.05-.06.05-.06,0-.07.05-.06.05-.06L17.8,3,17.85,3l0-.06,0,0h0l0,0-.05,0-.05,0L17.7,3l-.05,0,0,0-.05,0-.05,0-.05,0-.05,0,0,0-.06,0-.05,0,0,0-.05,0-.05,0-.05,0-.05,0,0,0-.05,0-.05,0-.05,0-.05,0,0,0-.05,0-.06,0,0,0-.05,0-.05,0-.05,0-.05,0,0,0-.05,0-.05,0-.05,0-.05,0,0,0-.05,0-.05,0-.06,0,0,0-.05,0,0,0-.05,0-.05,0,0,0-.05,0,0,0-.05,0-.05,0,0,0-.06,0,0,0-.05,0-.05,0,0,0L15,4.4l0,0-.05,0-.05,0,0,0-.05,0,0,0-.05,0-.05,0-.06,0-.05,0-.05,0,0,0-.05,0,0,0-.05,0-.05,0,0,0L14.1,5l0,0L14,5l-.05,0-.06,0-.05,0-.05,0,0,0-.05,0,0,0-.05,0-.05,0,0,0-.05,0,0,0-.05,0-.05,0-.06,0-.05,0,0,0-.05,0-.05,0,0,0-.05,0,0,0-.05,0-.05,0,0,0-.05,0,0,0-.05,0-.06,0,0,0-.05,0-.05,0,0,0-.05,0,0,0-.05,0-.05,0,0,0-.05,0,0,0-.06,0-.05,0,0,0-.05,0,0,0-.05,0-.05,0,0,0-.05,0,0,0-.05,0-.05,0,0,0-.06,0-.05,0,0,0-.05,0,0,0-.05,0L11,7.4l0,0-.05,0,0,0-.05,0-.05,0,0,0-.05,0-.06,0,0,.05-.05,0,0,0-.05,0-.05,0,0,.05-.05,0,0,.05-.05.05-.05,0,0,.05-.05.06-.06.05-.05.05-.05,0,0,.05-.05.06,0,0-.05.05-.05.06,0,.05-.05.06,0,0L9.33,9l-.05.05h0l0,.06-.06.06-.05.06,0,0L9,9.35l0,.06-.05.06-.05.06,0,.06-.05.05,0,.06-.05.06-.05.06,0,.06-.06.06,0,.06-.05.06-.05.06,0,.06-.05.06,0,.06-.05.06-.05.06,0,.06L8,10.54l0,.06,0,.06-.06.06,0,.07,0,.06,0,.06,0,.06L7.6,11l0,.07,0,0,0,0,0,.1,0,.1-.05.11,0,.06,0,0,0,.1-.06.11-.05.11,0,.11,0,.11,0,.12,0,.11-.05.12,0,.12,0,.13,0,.13,0,.13-.05.13,0,.14a.58.58,0,0,0,0,.14l-.06.14a.88.88,0,0,1-.05.15,1,1,0,0,1,0,.16l0,.16c0,.05,0,.11,0,.16s0,.12,0,.17l-.05.18a1.05,1.05,0,0,0,0,.19c0,.06,0,.12,0,.19a1.94,1.94,0,0,0,0,.2,1.74,1.74,0,0,0,0,.22,1.55,1.55,0,0,0-.05.23l-.06.24a2,2,0,0,1,0,.26,2.5,2.5,0,0,1-.05.29c0,.11,0,.21,0,.32s0,.24,0,.37,0,.29,0,.43,0,.38,0,.57a18.56,18.56,0,0,0,0,2.79c0,.2,0,.39,0,.59s0,.31,0,.46,0,.25,0,.38,0,.23,0,.34,0,.21.05.31a2.74,2.74,0,0,1,0,.28l.06.27A2,2,0,0,0,6,23.7a2,2,0,0,0,0,.24,1.74,1.74,0,0,0,0,.22c0,.07,0,.14,0,.21s0,.14,0,.21l.05.2,0,.19c0,.06,0,.12,0,.18l0,.18,0,.17a1.54,1.54,0,0,1,.05.17l.06.17,0,.16,0,.16.05.15,0,.15a.58.58,0,0,0,0,.14l0,.15,0,.14.05.14,0,.13,0,.14,0,.13,0,.13.05.13.06.12,0,.13,0,.12.05.12,0,.11,0,.12,0,.12,0,.11.05.11,0,.11,0,.11,0,.11,0,.11.06.1,0,.11,0,.1.05.1,0,.1.05.1.05.11,0,.09.05.1,0,.1.05.09.05.1,0,.09.06.09,0,.09.05.1.05.09,0,.08.05.09,0,.09.05.09.05.08,0,.09.05.09,0,.08.05.08.06.09,0,.08.05.08.05.08,0,.08h0l.05.08,0,.07.05.07.05.07,0,.08.05.07,0,.07.05.07.05.07.06.07.05.07,0,.06.05.07.05.07,0,.06.05.07,0,.07.05.06.05.07,0,.06.05.07,0,.06.06.06.05.07,0,.06.05.06.05.06,0,.06.05.06L11,34l.05.06.05.07,0,.05.05.06,0,.06.05.06.06.06,0,.06.05.05.05.06,0,.06.05,0,0,.06.05.05.05.06,0,.05.05.06,0,.05.05,0,.06.06,0,0,.05.06,0,0,.05.05.05,0,0,0,.05.05,0,0,.05.06.05,0,0,.05.06,0,.05,0,0,.05.05,0,0,0,.05.05.05,0,0,0,.05.05,0,0,.05.05.05,0,0,0,.05,0,.06,0,.05,0,.05,0,0,.05.05,0,0,0,.05,0,.05,0,0,.05.05,0,0,0,.05,0,.05,0L14,37l.05,0,.05,0,0,0,.05,0,0,0,.05,0,.05,0,0,0,.05,0,0,0,.05,0,.05,0,.06,0,.05,0,.05,0,0,0,.05,0,0,0,.05,0,.05,0,0,0,.05,0,0,0,.05,0,.05,0,0,0,.06,0,0,0,.05,0,.05,0,0,0,.05,0,0,0,.05,0,.05,0,0,0,.05,0,0,0,.06,0,.05,0,.05,0,0,0,.05,0,.05,0,.05,0,.05,0,0,0,.05,0,.05,0,.05,0,.05,0,0,0,.06,0,.05,0,0,0,.05,0,.05,0,.05,0,.05,0,0,0,.05,0,.05,0,.05,0,.05,0,0,0,.05,0,.06,0,0,0,.05,0,.05,0,.05,0,.05,0,0,0,.05,0,.05,0,.05,0,.05,0,0,0,.06,0,.05,0,0,0,.05,0,.05,0,.05,0,.05,0,0,0,.05,0,.05,0,.05,0,.05,0-.05,0Z"/><polygon class="cls-7" points="53.73 59.58 53.7 59.58 53.66 59.58 53.62 59.58 53.59 59.57 53.55 59.57 53.51 59.57 53.48 59.56 53.44 59.56 53.41 59.56 53.37 59.56 53.33 59.55 53.3 59.55 53.26 59.54 53.22 59.54 53.19 59.54 53.15 59.53 53.12 59.53 53.08 59.52 53.04 59.52 53.01 59.52 52.97 59.51 52.94 59.51 52.9 59.5 52.86 59.5 52.83 59.49 52.79 59.49 52.75 59.48 52.72 59.48 52.68 59.47 52.65 59.47 52.61 59.46 52.57 59.46 52.54 59.45 52.5 59.45 52.46 59.44 52.43 59.44 52.39 59.43 52.36 59.42 52.32 59.42 52.28 59.41 52.25 59.41 52.21 59.4 52.17 59.39 52.14 59.39 52.1 59.38 52.07 59.37 52.03 59.37 51.99 59.36 51.96 59.35 51.92 59.35 51.88 59.34 51.85 59.33 51.81 59.33 51.78 59.32 51.74 59.31 51.7 59.3 51.67 59.3 51.63 59.29 51.6 59.28 51.56 59.27 51.52 59.27 51.49 59.26 51.45 59.25 51.41 59.24 51.38 59.24 51.34 59.23 51.31 59.22 51.27 59.21 51.23 59.2 51.2 59.2 51.16 59.19 51.13 59.18 51.09 59.17 51.05 59.16 51.02 59.16 50.98 59.15 50.94 59.14 50.91 59.13 50.87 59.12 50.84 59.11 50.8 59.1 50.76 59.09 50.73 59.09 50.69 59.08 50.65 59.07 50.62 59.06 50.58 59.05 50.55 59.04 50.51 59.03 50.47 59.02 50.44 59.01 50.4 59 50.37 58.99 50.33 58.98 50.29 58.97 50.26 58.96 50.22 58.95 50.18 58.94 50.15 58.93 50.11 58.92 50.08 58.91 50.04 58.9 50 58.89 49.97 58.88 49.93 58.87 49.89 58.86 49.86 58.85 49.82 58.84 49.79 58.83 49.75 58.82 49.71 58.81 49.68 58.8 49.64 58.79 49.6 58.77 49.57 58.77 49.53 58.75 49.5 58.74 49.46 58.73 49.42 58.72 49.39 58.71 49.35 58.7 49.32 58.69 49.28 58.67 49.24 58.66 49.21 58.65 49.17 58.64 49.13 58.63 49.1 58.61 49.06 58.6 49.02 58.59 48.99 58.58 48.95 58.57 48.92 58.55 48.88 58.54 48.84 58.53 48.81 58.52 48.77 58.51 48.74 58.49 48.7 58.48 48.66 58.47 48.63 58.46 48.59 58.44 48.55 58.43 48.52 58.42 48.48 58.4 48.45 58.39 48.41 58.38 48.37 58.37 48.34 58.35 48.3 58.34 48.27 58.33 48.23 58.31 48.19 58.3 48.16 58.28 48.12 58.27 48.08 58.26 48.05 58.24 48.01 58.23 47.98 58.22 47.94 58.2 47.9 58.19 47.87 58.17 47.83 58.16 47.8 58.15 47.76 58.13 47.72 58.12 47.69 58.1 47.65 58.09 47.61 58.08 47.58 58.06 47.54 58.05 47.51 58.03 47.47 58.02 47.43 58 47.4 57.99 47.36 57.97 47.33 57.96 47.29 57.94 47.25 57.93 47.22 57.91 47.18 57.9 47.14 57.88 47.11 57.87 47.07 57.85 47.03 57.84 47 57.82 46.96 57.8 46.93 57.79 46.89 57.77 46.85 57.76 46.82 57.74 46.78 57.73 46.74 57.71 46.71 57.69 46.67 57.68 46.64 57.66 46.6 57.64 46.56 57.63 46.53 57.61 46.49 57.59 46.47 57.58 46.46 57.58 46.45 57.58 46.42 57.6 46.38 57.62 46.35 57.64 46.31 57.67 46.27 57.69 46.24 57.71 46.2 57.73 46.17 57.75 46.13 57.77 46.09 57.79 46.06 57.81 46.02 57.84 45.98 57.86 45.95 57.88 45.91 57.9 45.88 57.92 45.84 57.94 45.8 57.96 45.77 57.98 45.73 58 45.7 58.02 45.66 58.04 45.62 58.06 45.59 58.08 45.55 58.1 45.51 58.12 45.48 58.15 45.44 58.16 45.41 58.19 45.37 58.2 45.33 58.23 45.3 58.24 45.26 58.27 45.23 58.28 45.19 58.3 45.15 58.32 45.12 58.34 45.08 58.36 45.04 58.38 45.01 58.4 44.97 58.42 44.94 58.44 44.9 58.46 44.86 58.48 44.83 58.5 44.79 58.52 44.75 58.54 44.72 58.55 44.68 58.57 44.65 58.59 44.61 58.61 44.57 58.63 44.54 58.65 44.5 58.67 44.54 58.68 44.57 58.69 44.61 58.69 44.65 58.7 44.68 58.71 44.72 58.72 44.75 58.73 44.79 58.74 44.83 58.75 44.86 58.76 44.9 58.77 44.94 58.77 44.97 58.78 45.01 58.79 45.04 58.8 45.08 58.81 45.12 58.82 45.15 58.83 45.19 58.83 45.23 58.84 45.26 58.85 45.3 58.86 45.33 58.87 45.37 58.88 45.41 58.88 45.44 58.89 45.48 58.9 45.51 58.91 45.55 58.91 45.59 58.92 45.62 58.93 45.66 58.94 45.7 58.95 45.73 58.95 45.77 58.96 45.8 58.97 45.84 58.98 45.88 58.98 45.91 58.99 45.95 59 45.98 59.01 46.02 59.02 46.06 59.02 46.09 59.03 46.13 59.04 46.17 59.04 46.2 59.05 46.24 59.06 46.27 59.06 46.31 59.07 46.35 59.08 46.38 59.09 46.42 59.09 46.46 59.1 46.49 59.11 46.53 59.11 46.56 59.12 46.6 59.13 46.64 59.13 46.67 59.14 46.71 59.15 46.74 59.15 46.78 59.16 46.82 59.16 46.85 59.17 46.89 59.18 46.93 59.19 46.96 59.19 47 59.2 47.03 59.2 47.07 59.21 47.11 59.22 47.14 59.22 47.18 59.23 47.22 59.23 47.25 59.24 47.29 59.24 47.33 59.25 47.36 59.26 47.4 59.26 47.43 59.27 47.47 59.27 47.51 59.28 47.54 59.28 47.58 59.29 47.61 59.3 47.65 59.3 47.69 59.31 47.72 59.31 47.76 59.32 47.8 59.32 47.83 59.33 47.87 59.33 47.9 59.34 47.94 59.34 47.98 59.35 48.01 59.35 48.05 59.36 48.08 59.36 48.12 59.37 48.16 59.37 48.19 59.38 48.23 59.38 48.27 59.38 48.3 59.39 48.34 59.4 48.37 59.4 48.41 59.4 48.45 59.41 48.48 59.41 48.52 59.42 48.55 59.42 48.59 59.42 48.63 59.43 48.66 59.43 48.7 59.44 48.74 59.44 48.77 59.45 48.81 59.45 48.84 59.45 48.88 59.46 48.92 59.46 48.95 59.47 48.99 59.47 49.02 59.47 49.06 59.48 49.1 59.48 49.13 59.48 49.17 59.49 49.21 59.49 49.24 59.49 49.28 59.5 49.32 59.5 49.35 59.51 49.39 59.51 49.42 59.51 49.46 59.52 49.5 59.52 49.53 59.52 49.57 59.52 49.6 59.53 49.64 59.53 49.68 59.53 49.71 59.53 49.75 59.54 49.79 59.54 49.82 59.55 49.86 59.55 49.89 59.55 49.93 59.55 49.97 59.56 50 59.56 50.04 59.56 50.08 59.56 50.11 59.56 50.15 59.57 50.18 59.57 50.22 59.57 50.26 59.58 50.29 59.58 50.33 59.58 50.37 59.58 50.4 59.58 50.44 59.59 50.47 59.59 50.51 59.59 50.55 59.59 50.58 59.59 50.62 59.6 50.65 59.6 50.69 59.6 50.73 59.6 50.76 59.6 50.8 59.6 50.84 59.6 50.87 59.61 50.91 59.61 50.94 59.61 50.98 59.61 51.02 59.61 51.05 59.61 51.09 59.62 51.13 59.62 51.16 59.62 51.2 59.62 51.23 59.62 51.27 59.62 51.31 59.62 51.34 59.62 51.38 59.62 51.41 59.63 51.45 59.63 51.49 59.63 51.52 59.63 51.56 59.63 51.6 59.63 51.63 59.63 51.67 59.63 51.7 59.63 51.74 59.63 51.78 59.63 51.81 59.63 51.85 59.63 51.88 59.63 51.92 59.63 51.96 59.63 51.99 59.63 52.03 59.63 52.07 59.63 52.1 59.63 52.14 59.63 52.17 59.63 52.21 59.63 52.22 59.63 52.25 59.63 52.28 59.63 52.32 59.63 52.36 59.63 52.39 59.63 52.43 59.63 52.46 59.63 52.5 59.63 52.54 59.63 52.57 59.63 52.61 59.63 52.65 59.63 52.68 59.63 52.72 59.63 52.75 59.63 52.79 59.63 52.83 59.62 52.86 59.62 52.9 59.62 52.94 59.62 52.97 59.62 53.01 59.62 53.04 59.62 53.08 59.62 53.12 59.62 53.15 59.61 53.19 59.61 53.22 59.61 53.26 59.61 53.3 59.61 53.33 59.6 53.37 59.6 53.41 59.6 53.44 59.6 53.48 59.6 53.51 59.6 53.55 59.6 53.59 59.59 53.62 59.59 53.66 59.59 53.7 59.59 53.73 59.59 53.77 59.59 53.73 59.58"/><path class="cls-7" d="M39.45,19.68l-.05,0,0,0-.05,0,0,0,0,0-.05,0,0,0-.05,0-.06,0-.05,0,0,0,0,0-.05,0,0,0-.05,0,0,0,0,0-.05,0,0,0-.05,0,0,0-.06,0,0,0-.05,0,0,0,0,0-.05,0,0,0-.05,0,0,0,0,0-.05,0,0,0-.05,0-.06,0-.05,0,0,0,0,0-.05,0,0,0-.05,0,0,0,0,0-.05,0,0,0-.05,0,0,0,0,0-.06,0-.05,0,0,0,0,0-.05,0,0,0-.05,0,0,0,0,0-.05,0,0,0-.05,0,0,0-.06,0,0,0,0,0-.05,0,0,0-.05,0,0,0,0,0-.05,0,0,0-.05,0,0,0-.06,0,0,0,0,0-.05,0,0,0-.05,0,0,0,0,0-.05,0,0,0-.05,0,0,0,0,0-.05,0,0,0-.06,0,0,0-.05,0,0,0-.05,0,0,.05,0,0-.05,0,0,.05-.05,0,0,.05,0,0-.06.05,0,0-.05.05,0,0-.05.05,0,.05,0,0-.05.05,0,.05-.05,0,0,.05,0,.05-.05,0-.06.05,0,.05,0,.05-.05.05,0,0-.05.05,0,.05,0,.05-.05.05,0,0-.05.05,0,.06,0,0-.05.05-.06.05-.05.06,0,.05-.05.05,0,.06,0,.05-.05.06,0,.05-.05.06,0,.06,0,.05L32.4,25l0,.06-.06.05,0,.06-.05.06,0,.06,0,.06-.05.06-.05.06,0,.06-.05.06-.05.06-.05.06-.05.06,0,.06-.06.07-.05.06,0,.06-.05.06-.05.07-.05.06-.05.07,0,.06-.05.07-.05.07-.05.06-.05.07,0,.07-.06.07,0,.07-.05.06-.05.07-.05.07-.05.07,0,.07-.05.08-.05.07-.05.07-.05.07,0,.08h0l0,.07-.05.08-.06.08-.05.08-.05.09-.05.08-.05.08,0,.09L30,28.3l-.05.08-.05.09-.05.09,0,.09-.05.09-.05.09-.06.09-.05.09-.05.09-.05.09-.05.1,0,.09-.05.1-.05.1-.05.1-.05.09,0,.11-.05.1-.05.1-.06.1-.05.11-.05.1-.05.11-.05.11,0,.11-.05.11-.05.11-.05.11-.05.12,0,.12-.05.11-.05.12-.05.13-.06.12-.05.12-.05.13-.05.13,0,.13-.05.14-.05.13-.05.14-.05.14,0,.15-.05.14-.05.15-.05.16-.06.15-.05.16-.05.17,0,.17-.05.17-.05.18-.05.18-.05.19,0,.2-.05.21a1.6,1.6,0,0,0-.05.21,1.74,1.74,0,0,0-.05.22,2,2,0,0,0-.05.24l-.06.25c0,.08,0,.17-.05.26a2.74,2.74,0,0,1-.05.28c0,.1,0,.21,0,.31s0,.23-.05.34,0,.25-.05.38,0,.31-.05.46,0,.39-.05.59a18.44,18.44,0,0,0,0,2.23h0l.05,0h5.18v0c0-.13,0-.26-.05-.39s0-.31,0-.45,0-.36-.06-.54,0-.49-.05-.73a29.21,29.21,0,0,1,0-3c0-.25,0-.49.05-.73l.06-.53c0-.16,0-.31,0-.46s0-.26.05-.39,0-.24.05-.35,0-.22.05-.33,0-.2.05-.3,0-.19,0-.28,0-.18.05-.26,0-.17.05-.25a2,2,0,0,0,0-.24l0-.23a2.25,2.25,0,0,0,.05-.22l0-.21.06-.21,0-.19.05-.19,0-.19,0-.18.05-.17,0-.17.05-.17,0-.16,0-.15.05-.16,0-.15.05-.14L33,29.2l.05-.14,0-.13,0-.14.05-.13,0-.13.05-.12,0-.13,0-.12.05-.11,0-.12.05-.11,0-.11a.23.23,0,0,0,0-.1l0,0,0-.09.05-.11,0-.11,0-.11.05-.11,0-.1.05-.11,0-.1,0-.1.05-.1,0-.09.05-.1,0-.1.06-.09,0-.09,0,0,0-.06.05-.09,0-.09.05-.1,0-.09,0-.09.05-.09,0-.08.05-.09,0-.09.06-.08L35,25l.05-.08,0-.08,0-.09.05-.08,0-.08.05-.08,0-.08,0-.08.05-.07,0-.08.05-.08,0-.08,0-.07.06-.08,0-.07.05-.07,0-.08L36,23.6l0-.07,0-.07.05-.07,0-.07.05-.07,0-.07,0-.07.06-.07,0-.06.05-.07,0-.07.05-.06,0-.07,0-.06.05-.07,0-.06.05-.06,0-.07,0-.06.05-.06.06-.06,0-.06,0-.06.05-.06,0-.06.05-.06,0-.06,0-.06.05-.06,0-.06.05-.05,0-.06,0-.06.05-.05.06-.06.05-.06,0,0,.05-.05,0-.06,0-.05.05-.06,0,0,.05-.05,0-.06,0,0,.05-.05,0-.05.06-.05,0-.05.05,0,0-.05.05-.05,0-.05,0-.05.05,0,0-.05.05-.05,0,0,0-.05.05-.05.06-.05.05,0,0-.05.05,0,0,0,0-.05.05,0,0-.05.05,0,0-.05h0Z"/><path class="cls-7" d="M34.72,41.34v-.07a37.33,37.33,0,0,1-.81-3.92V35.52h0V32.74h0v2h0v.6h0v.48h0V36h0v1.27a31.5,31.5,0,0,0,.46,4v0h0v.09c.3,0,.61,0,.91-.06h0Z"/><path class="cls-8" d="M80.36,29.67c0-.47,0-.94,0-1.4l0,.31c0,.19,0,.39-.07.61l-.06.46c0,.12,0,.25-.07.38s0,.23-.07.35,0,.21-.07.31,0,.2-.07.3a2.68,2.68,0,0,1-.07.27,2.5,2.5,0,0,1-.07.26c0,.08,0,.16-.07.25l-.06.24a1.87,1.87,0,0,0-.07.22c0,.08-.05.15-.07.22l-.07.22c0,.06-.05.13-.07.2a1.59,1.59,0,0,1-.07.2,1.07,1.07,0,0,1-.07.19l-.07.19-.06.18-.07.18-.07.18-.07.17-.07.17-.07.16-.07.16-.07.15-.06.16a1,1,0,0,0-.07.15l-.07.15-.07.14-.07.14-.07.15-.07.13L78,36l-.06.13-.07.13-.07.13-.07.13-.07.12a.54.54,0,0,1-.07.13l-.07.12-.07.12-.06.12-.07.12-.07.11-.07.11-.07.12-.07.11-.07.11a.61.61,0,0,1-.07.1l-.06.11-.07.1-.07.11-.07.1-.07.1-.07.1a1969000591118.1,1969000591118.1,0,0,0-.14.2l-.06.1-.07.09-.07.1-.07.09-.07.09-.07.1-.07.09-.07.09-.06.08-.07.09-.07.09-.07.08-.07.09-.07.08-.07.09-.07.08-.07.08-.06.08-.07.08-.07.08-.07.08-.07.07-.07.08-.07.08-.07.07-.06.08-.07.07-.07.08-.07.07-.07.07-.07.07-.07.07-.07.07-.06.07-.07.07-.07.06-.07.07-.07.07-.07.07-.07.06-.07.07-.06.06-.07.06-.07.07-.07.06-.07.06-.07.06-.07.06-.07.06-.06.06-.07.06-.07.06-.07.06-.07.06-.07.06-.07.05-.07.06-.06.05-.07.06-.07.05-.07.06-.07.05-.07,0-.07.06-.07,0-.06.05-.07,0-.07,0-.07.05-.07,0-.07.05-.07,0-.06,0-.07.05-.07,0-.07.05-.07,0L71,44l-.07.05-.07,0-.07,0-.06,0-.07.05-.07,0-.07,0-.07,0-.07,0-.07.05-.07,0-.06,0-.07,0-.07.05-.07,0-.07,0-.07,0-.07,0-.07,0-.06,0-.07,0-.07,0-.07,0-.07,0-.07,0-.07,0-.07,0-.06,0-.07,0-.07,0-.07,0-.07,0-.07,0-.07,0-.07,0-.07,0-.06,0-.07,0-.07,0-.07,0-.07,0-.07,0-.07,0-.06,0-.07,0-.07,0-.07,0-.07,0-.07,0-.07,0-.07,0-.07,0-.06,0-.07,0-.07,0-.07,0-.07,0-.07,0-.07,0-.06,0-.07,0-.07,0-.07,0-.07,0-.07,0-.07,0-.07,0-.06,0-.07,0-.07,0-.07,0-.07,0-.07,0-.07,0-.07,0-.06,0-.07,0-.07,0-.07,0-.07,0-.07,0-.07,0-.07,0-.07,0-.06,0-.07,0-.07,0-.07,0-.07,0-.07,0-.07,0-.07,0-.06,0-.07,0-.07,0-.07,0h-.07l-.07,0H64.2l-.06,0-.07,0-.07,0-.07,0h-.07l-.07,0-.07,0-.07,0h-.06l-.07,0-.07,0-.07,0h-.07l-.07,0h-.07l-.07,0H63l-.06,0H62.9l-.07,0h1.85l.07,0H65l.07,0h.2l.07,0h.07l.07,0h.14l.07,0h.07l.06,0h.07l.07,0h.07l.07,0h.07l.07,0,.07,0h.06l.07,0,.07,0h.07l.07,0,.07,0,.07,0h.07l.06,0,.07,0,.07,0,.07,0,.07,0,.07,0,.07,0,.06,0,.07,0,.07,0,.07,0,.07,0,.07,0,.07,0,.07,0,.07,0,.06,0,.07,0,.07,0,.07,0,.07,0,.07,0,.07,0,.06,0,.07,0,.07,0,.07,0,.07,0,.07,0L69,46,69,46l.07,0,.06,0,.07,0,.07,0,.07,0,.07,0,.07,0,.07,0,.07,0,.06,0,.07,0,.07,0,.07,0,.07,0,.07,0,.07,0,.07,0,.06,0,.07,0,.07,0,.07,0,.07,0,.07,0,.07,0,.07,0,.06,0,.07,0,.07,0,.07,0,.07,0,.07,0,.07,0,.07,0,.07,0,.06,0,.07,0,.07,0,.07,0,.07,0,.07,0,.07,0,.06,0,.07,0,.07,0,.07,0,.07,0,.07,0,.07,0,.07,0,.06,0,.07,0,.07,0,.07,0,.07,0,.07,0,.07,0,.07,0L73,44l.07,0,.07,0,.07,0,.07-.05.07,0,.07,0,.07-.05.06,0,.07-.05.07,0,.07,0,.07-.05.07,0,.07,0,.07-.06.06,0,.07-.05.07,0,.07-.05.07-.06.07-.05.07-.06.07-.05.06-.06.07-.05.07-.06.07,0,.07-.06.07-.06.07-.06.07-.06.06-.06.07-.06.07-.06.07-.06.07-.06.07-.06.07-.06.07-.07.07-.06.06-.07.07-.06.07-.07.07-.06.07-.07.07-.07.07-.06.07-.07.06-.07.07-.07.07-.07.07-.07.07-.07.07-.08.07-.07.07-.07.06-.08.07-.07.07-.08.07-.07.07-.08.07-.08.07-.08.07-.08.06-.08.07-.08.07-.08.07-.08.07-.09.07-.08.07-.09.07-.08.06-.09.07-.09.07-.08.07-.09L78.3,39l.07-.1.07-.09.07-.09.06-.1.07-.09.07-.1.07-.1.07-.09.07-.1L79,38l.07-.11.06-.1.07-.1.07-.11,0,0,0-.18c0-.08,0-.17.07-.26s0-.17.07-.26a2.86,2.86,0,0,1,.07-.28c0-.09,0-.19.07-.29l.06-.3a3,3,0,0,0,.07-.32c0-.11.05-.22.07-.33s0-.24.07-.36.05-.26.07-.39,0-.28.07-.42,0-.31.07-.46,0-.36.07-.53l.06-.63c0-.27,0-.54.07-.81,0-.62.07-1.24.07-1.87v-.23Z"/><path class="cls-8" d="M55.36,48.8a35.29,35.29,0,0,1-2.75,3.47C58,54.5,63.85,54.81,69,52.26l.42-.2c.68-.55,1.36-1.13,2.07-1.76a26.55,26.55,0,0,0,6.2-8.65C69.19,48.84,60.91,49.53,55.36,48.8Z"/><path class="cls-8" d="M52.94,18.23l0,0,0,0,0,0,0,0,0,0,0,0,0,0,0,0,0,0h0l0,0,0,0,0,0,0,0,0,0,0,0,0,0,0,0,0,0,0,0,0,0,0,0,0,0,0,0,0,0,0,0,0,0,0,0,0,0,0,0,0,0,0,0,0,0,0,0,0,0,0,0,0,0,0,0,0,0,0,0,0,0,0,0,0,0,0,0,0,0,0,0,0,0,0,0,0,0,0,0,0,0,0,0,0,0,0,0,0,0,0,0,0,0,0,0,0,0,0,0,0,0,0,0,0,0,0,0,0,0,0,0,0,0,0,0,0,0,0,0,0,0,0,0,0,0,0,0,0,0,0,0,0,0,0,0,0,0,0,0,0,0,0,0,0,0,0,0,0,0,0,0,0,0,0,0,0,0,0,0,0,0,0,0,0,0,0,0,0,0,0,0,0,0,0,0,0,0,0,0,0,0,0,0,0,0,0,0,0,0,0,0,0,0,0,0,0,0,0,0,0,0,0,0,0,0,0,0,0,0,0,0,0,0,0,.05,0,0,0,0,0,0,0,0,0,0,0,0,0,0,0,.05,0,0,0,0,0,0,0,.05,0,0,0,0,0,.05,0,0,0,.05,0,0,0,0,0,.05,0,0,0,.05,0,0,0,.05,0,.05,0,0,0,.05,0,.05,0,0,0,.05,0,.05,0,.05,0,0,0,.05,0,0,0,.05,0,.05,0,.05,0,.05,0,0,0,.05,0,.05,0,.05,0,.05,0,0,0,.06,0,.05,0,0,0,.05,0,.06,0,.05,0,.06,0,0,0,.05,0,.06,0,0,0,.06,0,.06,0,.05,0,.06,0,.06,0,0,0,.06,0,.06,0,.06,0,.06,0,.06,0,.06,0,.06,0,.06,0,.07,0,.06,0,.06,0,.07,0,.06,0,.06,0,.07,0,.07,0,.06,0,.07,0,.07,0,.06,0,.07,0,.07,0,.07,0,.07,0,.07,0,.08,0,.07,0,.07,0,.08,0,.07,0,.08,0,.08,0,.08,0,.07,0,.09,0,.08,0,.08,0,.08,0,.09,0,.08,0,.09,0,.09,0,.09,0,.09,0,.09,0,.09,0,.1,0,.1,0,.1,0,.1,0,.1,0,.11,0,.1,0,.11,0,.12,0,.12,0,.12,0,.12,0,.13,0,.13,0,.14,0,.15,0,.15,0,.16,0,.17,0,.19,0,.21c0,.09,0,.17,0,.25l0,.31v.12c0-.12,0-.25,0-.37,0-.36,0-.71,0-1.07s0-.88,0-1.31l0-.5,0-.39c0-.11,0-.22,0-.33l0-.29,0-.26c0-.08,0-.16,0-.24l0-.22,0-.21,0-.2,0-.19,0-.18,0-.17,0-.17,0-.16,0-.16,0-.15,0-.14,0-.14,0-.14,0-.14,0-.13,0-.13,0-.12,0-.13,0-.11,0-.12,0-.12,0-.11,0-.11,0-.11,0-.11,0-.11,0-.1,0-.11,0-.1,0-.1,0-.1,0-.09,0-.1,0-.08h0l0,0,0,0,0,0,0,0,0,0,0,0,0,0,0,0,0,0,0,0,0,0,0,0,0,0,0,0,0,0,0,0,0,0,0,0,0,0,0,0,0,0,0,0,0,0,0,0,0,0,0,0,0,0,0,0,0,0,0,0,0,0,0,0,0,0,0,0,0,0,0,0,0,0,0,0,0,0,0,0,0,0,0,0,0,0,0,0,0,0,0,0,0,0,0,0,0,0,0,0,0,0,0,0,0,0,0,0,0,0,0,0,0,0,0,0,0,0,0,0,0,0,0,0,0,0,0,0,0,0,0,0,0,0,0,0,0,0,0,0,0,0,0,0,0,0,0,0,0,0,0,0,0,0,0,0,0,0,0,0,0,0,0,0,0,0,0,0,0,0,0,0,0,0,0,0,0,0,0,0,0,0,0,0,0,0,0,0,0,0,0,0,0,0,0,0,0,0,0,0,0,0,0,0,0,0,0,0,0,0,0,0,0,0,0,0,0,0,0,0,0,0,0,0,0,0,0,0,0,0,0,0,0,0,0,0,0,0,0,0,0,0,0,0,0,0,0,0,0,0,0,0,0,0,0,0,0,0,0,0,0,0h0l0,0,0,0,0,0,0,0,0,0,0,0,0,0h0l-1.05.07h-.12l-.76.05h0Z"/><path class="cls-8" d="M52.38,18.56l-.31-.29-1.26.12.38.32a22.88,22.88,0,0,1,7,10.26A19.42,19.42,0,0,0,52.38,18.56Z"/><path class="cls-9" d="M56.61,47.09c.47.06,1,.11,1.44.13C68,47.65,77.2,40.41,79,31A24,24,0,0,1,56.61,47.09Z"/><path class="cls-9" d="M78.72,25.15A19.27,19.27,0,0,0,75.43,14.4c1.3,3.69.92,6.81.14,10.76-1.72,8.73-8.4,14.76-16.62,17.5a24.14,24.14,0,0,1-1.79,3.5C68.82,45.84,78.85,36.23,78.72,25.15Z"/><path class="cls-9" d="M50.19,18.83l-.38-.32q-3,.38-6.06,1.06A22.25,22.25,0,0,1,54.58,34.42c.77,3.92,1.15,7-.11,10.69a1.77,1.77,0,0,1,.12-.17l.15-.25h0A21.81,21.81,0,0,0,56,42.37v0q.18-.37.33-.75a19.07,19.07,0,0,0,1.41-7.16A20.35,20.35,0,0,0,50.19,18.83Z"/></g></g></svg>